<?xml version="1.0" encoding="UTF-8" standalone="no"?>
<!DOCTYPE svg  PUBLIC '-//W3C//DTD SVG 1.1//EN'  'http://www.w3.org/Graphics/SVG/1.1/DTD/svg11.dtd'>
<svg xmlns="http://www.w3.org/2000/svg">
<defs>
<font id="ARCENA-Regular" horiz-adv-x="501">
<font-face underline-position="0" font-weight="5" descent="-200" panose-1="2 0 0 0 0 0 0 0 0 0" units-per-em="1000" unicode-range="U+0020-2122" bbox="-30 -253 1039 938" x-height="457" underline-thickness="0" font-family="ARCENA" ascent="800" cap-height="668"/>
<missing-glyph horiz-adv-x="1000"/>
<glyph glyph-name=".notdef" horiz-adv-x="1000"/>
<glyph glyph-name=".null" horiz-adv-x="0"/>
<glyph glyph-name="nonmarkingreturn" horiz-adv-x="333"/>
<glyph glyph-name="space" horiz-adv-x="260" unicode=" "/>
<glyph glyph-name="space" horiz-adv-x="260" unicode=" "/>
<glyph glyph-name="exclam" horiz-adv-x="254" unicode="!" d="M143 120q26 0 45.5 -13t19.5 -38q0 -31 -28.5 -51t-61.5 -20q-28 0 -46.5 13t-18.5 41q0 31 28 49.5t62 18.5zM99 650q0 14 10.5 22.5t36.5 8.5t45.5 -13t19.5 -38q0 -19 -8 -51q-12 -48 -13 -54q-13 -69 -19 -123t-6 -111q0 -21 11.5 -56.5t11.5 -41.5q0 -13 -19.5 -23 t-35.5 -10q-36 0 -51 36q-11 26 -11 68q0 64 14 192t14 194z"/>
<glyph glyph-name="quotedbl" horiz-adv-x="297" unicode='&quot;' d="M155 635q0 -4 -16 -51q-19 -57 -21 -65q-5 -25 -14.5 -36.5t-21.5 -11.5q-21 0 -32 50q-7 33 -7 69q0 38 16 58.5t54 20.5q13 0 22 -4q20 -9 20 -30zM288 635q0 -13 -6.5 -25.5t-11.5 -22.5t-15.5 -53t-18.5 -53t-22 -10q-21 0 -29.5 42t-8.5 77q0 39 15.5 59t54.5 20 q13 0 22 -4q20 -9 20 -30z"/>
<glyph glyph-name="numbersign" horiz-adv-x="525" unicode="#" d="M341 529q63 160 86 160q15 0 27 -15t17 -38q-1 -2 -8 -19.5t-20 -51.5q-3 -8 -4.5 -12.5t-2.5 -8t-3 -7.5t-5 -12q5 -1 9 -1.5t7 -0.5q86 -10 86 -53q0 -17 -9.5 -30t-31.5 -13h-11t-8 1q-2 0 -3.5 0.5t-2.5 0.5q-17 2 -34.5 3.5t-36.5 2.5q-5 -16 -10 -28t-8 -21l-5 -15 q-2 -5 -4 -9q-3 -9 -5 -14t-3.5 -10.5t-3.5 -12t-5 -16.5l13.5 -1.5t9.5 -1.5q86 -9 86 -52q0 -17 -9.5 -30.5t-31.5 -13.5h-11t-8 1q-2 0 -3.5 0.5t-2.5 0.5q-17 2 -34.5 4t-37.5 3l-4 -14l-4 -14q-5 -19 -11 -39.5t-13 -43.5q-14 -48 -24.5 -84.5t-15.5 -53.5l-22 -8 q-19 0 -31.5 9.5t-12.5 37.5l54 212h-19h-42q-7 -23 -14.5 -50.5t-17.5 -62.5q-14 -47 -25 -84t-16 -54l-22 -8q-18 0 -30.5 9.5t-12.5 37.5q0 20 13 72t40 137q-2 0 -4.5 -0.5t-4.5 -0.5q-11 -1 -21.5 -2t-21.5 -3q-27 0 -40 14t-13 30q0 15 12.5 26t34.5 18q33 10 87 11 q10 29 19 56.5t20 55.5l1 5q0 1 0.5 1.5t1.5 2.5h-8q-11 -1 -21.5 -1.5t-21.5 -1.5q-28 0 -41 13.5t-13 30.5q0 31 47 43q17 5 40 8t53 5q62 160 86 160q14 0 26 -15t17 -38q-2 -4 -9 -22t-19 -50q-4 -9 -7 -17t-7 -17v-1h58zM266 312l20 58q10 28 19 56l4 12h-61 q-6 -17 -10.5 -30t-7.5 -22q-4 -9 -6 -15q-2 -5 -4 -9l-6 -17q-2 -7 -3 -10t-2 -5.5t-2 -6t-4 -11.5h63z"/>
<glyph glyph-name="dollar" horiz-adv-x="522" unicode="$" d="M170 408q0 -20 21 -38q12 -10 38 -24l3 122v19q-22 -13 -40 -33q-22 -24 -22 -46zM291 81q29 0 51 13q27 16 27 43q0 24 -27 46q-19 16 -49 29q0 -22 -1 -66t-1 -65zM33 101q0 21 14.5 37.5t35.5 16.5l16 -4q33 -40 53 -51.5t69 -16.5q0 27 1 82t1 82q-71 34 -104 60 q-58 46 -58 98q0 44 36 89q45 57 135 105q0 29 -1 41q-6 45 -8 68l11 19l28 7l26 -8q8 -15 11.5 -32.5t3.5 -63.5q36 13 71.5 22t66.5 9q27 0 44 -13t17 -40q0 -22 -8 -37.5t-27 -22.5q-9 0 -18 4q-25 11 -32 11q-29 0 -57 -9t-59 -26q0 -36 -3 -108t-3 -108q57 -33 115 -65 q65 -46 65 -107q0 -69 -60 -106q-45 -27 -123 -36q0 -26 1 -46t5 -42l-11 -18q-7 -2 -15.5 -4.5t-11.5 -2.5q-4 0 -11.5 2.5l-10.5 3.5q-9 18 -13 38.5t-4 67.5q-57 0 -115 24q-73 30 -73 80z"/>
<glyph glyph-name="percent" horiz-adv-x="546" unicode="%" d="M279 522q-4 -1 -12.5 -0.5t-22.5 1.5q-8 -27 -18 -48t-21 -36q-36 -45 -86 -45q-22 0 -39 9.5t-29 25.5t-18 37.5t-6 44.5q0 27 7.5 59.5t21.5 64.5q17 38 40 61t47 23q65 0 90 -33q9 -14 13.5 -37.5t5.5 -55.5q58 14 70 42q11 22 21 75q20 27 51 27q20 0 35 -11t15 -31 q0 -4 -15 -38t-44 -101q-35 -78 -62 -147t-47 -129q-60 -174 -60 -260q0 -20 6 -33q7 -14 10.5 -22t3.5 -11l-12 -20q-5 -2 -14 -6t-13 -4q-13 0 -24 7.5t-18.5 19t-11.5 26t-4 28.5q0 35 6.5 80.5t18.5 94.5q10 44 24.5 92.5t32.5 97.5q12 35 26.5 72.5t31.5 79.5zM384 -10 q-49 0 -76 47v-1q-22 38 -22 91q0 26 5.5 55t16.5 61q30 81 75 81q9 0 18 -3q11 -4 17 -5t9 -1q21 0 39.5 -12t30.5 -34q19 -36 19 -84q0 -64 -31 -123q-40 -72 -101 -72zM409 250q-12 0 -22.5 -13.5t-17.5 -36.5q-12 -39 -12 -78q0 -24 4.5 -42.5t21.5 -18.5q25 0 45 46 q16 39 16 73q0 27 -7 45q-10 25 -28 25zM169 520q-27 7 -41 20t-21 40q-8 -18 -10.5 -36t-2.5 -36q0 -17 5.5 -30.5t19.5 -13.5q8 0 16.5 5.5t16.5 14.5q11 15 17 36zM185 602q0 25 -6 40.5t-17 15.5q-6 0 -10.5 -13t-4.5 -21q0 -32 36 -42z"/>
<glyph glyph-name="ampersand" horiz-adv-x="652" unicode="&amp;" d="M400 538q0 14 -9.5 21.5t-24.5 7.5q-48 0 -92 -39t-44 -86q0 -9 2.5 -17.5t7.5 -22.5q78 49 93 60q67 49 67 76zM217 263q-30 -22 -46 -45q-20 -28 -20 -60q0 -30 19 -45.5t50 -15.5q37 0 71.5 15t68.5 42q-32 22 -73 53q-17 13 -70 56zM449 306q0 17 -6.5 33.5 t-12.5 32.5q3 14 20.5 24.5t32.5 10.5q33 0 50 -40q12 -29 12 -68q0 -65 -36 -118q16 -8 25 -10t22 -2h17q16 0 24.5 -19.5t8.5 -37.5q0 -21 -13.5 -35.5t-34.5 -14.5q-26 0 -58 13q-19 8 -54 28q-47 -45 -105.5 -74.5t-117.5 -29.5q-74 0 -125.5 45t-51.5 119q0 54 32 101 q25 37 77 78q-11 22 -19 48.5t-8 50.5q0 92 86 160q81 64 175 64q48 0 81 -44.5t33 -95.5q0 -57 -112 -136q-45 -31 -89 -61q25 -24 60 -51q31 -23 65 -46q22 36 22 75z"/>
<glyph glyph-name="quotesingle" horiz-adv-x="165" unicode="&apos;" d="M155 635q0 -4 -16 -51q-19 -57 -21 -65q-5 -25 -14.5 -36.5t-21.5 -11.5q-21 0 -32 50q-7 33 -7 69q0 38 16 58.5t54 20.5q13 0 22 -4q20 -9 20 -30z"/>
<glyph glyph-name="parenleft" horiz-adv-x="345" unicode="(" d="M299 634q-3 -14 -5.5 -18t-15.5 -18q-41 -47 -62.5 -123.5t-21.5 -149.5q0 -68 28 -149q31 -76 63 -151q0 -17 -15.5 -29.5t-34.5 -12.5q-52 0 -94 148q-34 121 -34 196q0 74 39 201q47 152 101 152q18 0 32.5 -13.5t19.5 -32.5z"/>
<glyph glyph-name="parenright" horiz-adv-x="346" unicode=")" d="M152 392q0 63 -13 119q-16 69 -48 109q-5 7 -9.5 14t-5.5 15q8 35 42 35q58 0 94 -124q27 -94 27 -174q0 -88 -34 -225q-43 -175 -101 -175q-18 0 -31 12t-13 29q36 87 62 184q30 109 30 181z"/>
<glyph glyph-name="asterisk" horiz-adv-x="445" unicode="*" d="M66 340q-28 9 -28 39q0 29 57 68q19 12 37 22.5t37 19.5q-22 12 -35.5 21.5t-24.5 17.5q-49 40 -49 66q0 14 10.5 27t27.5 13q9 0 35 -24l60 -55q0 11 -0.5 20.5t-0.5 20.5q0 37 3 51q9 35 37 35q14 0 27.5 -7t13.5 -20q0 -11 -2 -26t-6 -35q-3 -16 -5 -28.5t-3 -22.5 q46 37 71 50t43 13q17 0 26.5 -11t9.5 -28q0 -16 -56 -47l-26 -15q-12 -7 -20 -12t-19 -11q5 -4 7.5 -6.5t7.5 -5.5q12 -9 23 -17.5t23 -17.5q52 -43 52 -62q0 -14 -9.5 -24t-23.5 -10q-25 0 -66 38q-14 11 -22.5 18.5t-15.5 15.5q-4 5 -4 4t-4 4q0 -7 -0.5 -12.5 t-0.5 -11.5q0 -9 1 -23.5t3 -33.5q6 -36 6 -49q0 -28 -31 -28q-30 0 -40 32t-10 82v18.5t1 20.5v7q-14 -10 -27 -18.5t-26 -17.5l-30 -22l-30 -22z"/>
<glyph glyph-name="plus" horiz-adv-x="464" unicode="+" d="M281 169q0 -12 -15 -19.5t-29 -7.5q-39 0 -52 33q-6 15 -6 56q0 21 0.5 44.5t2.5 47.5q-17 0 -50 -3q-20 -2 -39 -4.5t-38 -5.5q-19 0 -28.5 12t-9.5 29q0 27 36 41q38 16 128 16h9q1 14 2 26.5t3 26.5q2 31 3 58t1 47q0 14 14.5 20t28.5 6q20 0 39 -11.5t19 -29.5 q0 -16 -3 -32.5t-6 -33.5q-1 -4 -1.5 -8t-1.5 -8q0 -2 -0.5 -4t-0.5 -3q-2 -14 -3.5 -26l-3.5 -28q32 -1 57.5 -2.5t42.5 -5.5q35 -7 53.5 -20t18.5 -33q0 -17 -6 -28.5t-22 -11.5q-11 0 -21 3q-17 4 -38 6l-42 4q-13 1 -24 1.5t-25 0.5q-3 -59 -3 -116q0 -5 3 -12 q7 -20 7 -25z"/>
<glyph glyph-name="comma" horiz-adv-x="241" unicode="," d="M96 -4q-22 0 -40 14.5t-18 36.5q0 34 26 54.5t61 20.5q34 0 53 -21t19 -55q0 -45 -33 -99q-37 -60 -79 -60q-23 0 -23 19q19 18 36.5 40.5t22.5 53.5q-16 -4 -25 -4z"/>
<glyph glyph-name="hyphen" horiz-adv-x="315" unicode="-" d="M146 289q53 0 79 -7q49 -13 49 -50q0 -15 -7 -26.5t-20 -11.5q-8 0 -41 7t-52 7q-14 0 -33 -3q-45 -7 -47 -7q-13 0 -20.5 15t-7.5 30q0 26 40 38q27 8 60 8z"/>
<glyph glyph-name="period" horiz-adv-x="241" unicode="." d="M129 123q26 0 45.5 -14t19.5 -39q0 -30 -28.5 -50t-60.5 -20q-27 0 -46 14t-19 41q0 31 28 49.5t61 18.5z"/>
<glyph glyph-name="slash" horiz-adv-x="489" unicode="/" d="M17 -21q0 45 96 228q46 89 92.5 170.5t94.5 156.5q107 171 133 171q19 0 33.5 -13t19.5 -33q-1 -2 -13 -21.5t-35 -55.5v1q-8 -12 -15.5 -24.5t-15.5 -24.5q-14 -21 -27.5 -42.5t-27.5 -42.5q-44 -69 -52 -85q-17 -30 -35 -64.5t-38 -72.5q-14 -27 -30.5 -62t-36.5 -77 q-24 -51 -42.5 -87.5t-27.5 -55.5l-22 -5q-23 0 -37 8t-14 31z"/>
<glyph glyph-name="zero" horiz-adv-x="499" unicode="0" d="M349 353q0 71 -17 121q-26 76 -82 76q-54 0 -83 -101q-21 -73 -21 -146q0 -70 16 -118q24 -73 79 -73q60 0 88 95q20 67 20 146zM251 665q25 0 36.5 -5.5t30.5 -24.5q80 -78 104 -126q31 -61 31 -164q0 -121 -46 -220q-59 -126 -166 -126q-102 0 -157 107q-44 85 -44 198 q0 121 46 226q59 135 165 135z"/>
<glyph glyph-name="one" horiz-adv-x="238" unicode="1" d="M26 584l3 8l48 42q35 28 53 28q17 0 42.5 -20.5t25.5 -36.5q0 -64 -9.5 -149.5t-19 -178t-9.5 -158.5q0 -26 2.5 -39.5t11.5 -45.5q-6 -17 -19.5 -25.5t-32.5 -8.5q-46 0 -60 43q-7 22 -7 82q0 90 9 206q3 33 19 205q-24 5 -38 14q-19 13 -19 34z"/>
<glyph glyph-name="two" horiz-adv-x="503" unicode="2" d="M322 143q68 0 96 -7q59 -15 59 -61q0 -20 -9 -34.5t-28 -14.5q-23 0 -72 4t-74 4q-46 0 -109 -10q-146 -23 -151 -23q-15 0 -26.5 12.5t-11.5 27.5q0 13 92 120q138 161 172 204q93 119 93 157q0 8 -5 13t-19 5q-45 0 -100 -44q-58 -49 -116 -97q-24 0 -43 15t-19 39 q0 58 120 127q112 64 180 64q49 0 81 -27.5t32 -75.5q0 -52 -53 -138q-42 -69 -114 -154q-52 -62 -106 -118q27 4 58.5 8t72.5 4z"/>
<glyph glyph-name="three" horiz-adv-x="521" unicode="3" d="M473 196q0 -95 -78 -149q-69 -48 -169 -48q-74 0 -141 28q-88 37 -88 99q0 20 17.5 31t40.5 11q27 0 46 -23q41 -51 115 -51q55 0 98 24q53 30 53 82q0 35 -29.5 49.5t-67.5 14.5q-27 0 -57.5 -8t-59.5 -15q-20 7 -30 25.5t-10 41.5q0 12 7 28q125 41 196 80q76 42 76 92 l-11 25q-10 4 -17.5 6.5t-14.5 2.5q-55 0 -121 -43q-61 -48 -121 -95q-22 0 -39 17t-17 40q0 60 127 124q115 58 183 58q59 0 103 -36t44 -94q0 -57 -49 -104q-31 -29 -99 -66q53 -13 83 -52.5t30 -94.5z"/>
<glyph glyph-name="four" horiz-adv-x="592" unicode="4" d="M345 476q-52 -45 -91 -84q-45 -45 -82 -92q68 15 138 15q11 54 17 85t18 76zM57 171q-20 6 -33.5 22.5t-13.5 36.5q0 34 96 142q87 98 192 190q110 96 141 96q11 0 32 -20t26 -33q-38 -143 -76 -285h26h17.5t19.5 1q42 0 62 -8q30 -12 30 -42q0 -31 -18 -44 q-14 -10 -43 -10q-15 0 -31 1t-31 2l-47 -2q-4 -40 -5.5 -62t-1.5 -33q0 -22 4 -41.5t9 -39.5l-9 -19q-8 -9 -23.5 -15t-28.5 -6q-38 0 -52.5 30t-14.5 78q0 27 4 57.5t5 41.5q-61 0 -120 -9t-116 -29z"/>
<glyph glyph-name="five" horiz-adv-x="513" unicode="5" d="M245 396q96 0 164 -50q77 -56 77 -149q0 -92 -83 -147q-73 -48 -170 -48q-68 0 -141 32q-92 40 -92 100q0 22 20.5 42.5t42.5 20.5l16 -4q35 -49 71 -67.5t97 -18.5q50 0 84 18q45 24 45 69q0 46 -45 73q-38 23 -88 23q-26 0 -60 -11q-78 -25 -91 -25q-21 0 -39 19 t-18 39q0 7 3 15t4 12q11 35 24 132.5t30 131.5q10 21 30 27t50 6q21 0 72.5 3.5t69.5 3.5q69 0 105 -16q47 -21 47 -72q0 -15 -6 -25.5t-20 -10.5q-30 0 -93 11t-96 11q-53 0 -73 -53q-8 -22 -18 -102q37 10 81 10z"/>
<glyph glyph-name="six" horiz-adv-x="548" unicode="6" d="M285 372q-63 0 -96.5 -42t-33.5 -106q0 -52 26.5 -86t77.5 -34q59 0 100 43t41 103q0 54 -31 88t-84 34zM310 465q87 0 146 -58t59 -144q0 -103 -77.5 -182.5t-181.5 -79.5q-94 0 -152.5 63.5t-58.5 155.5v19t4 28q-10 10 -16.5 20.5t-6.5 23.5q0 19 21 38q18 15 36 31 q72 136 124.5 208.5t101.5 72.5q22 0 40 -14.5t18 -36.5q0 -10 -27 -35q-19 -18 -38 -35q-32 -37 -61 -86q21 6 36.5 8.5t32.5 2.5z"/>
<glyph glyph-name="seven" horiz-adv-x="476" unicode="7" d="M149 523h-22q-48 0 -71 6q-40 10 -40 39q0 38 29 52.5t78 14.5q28 0 70 -3.5t46 -3.5q25 0 84.5 5.5t76.5 5.5q24 0 42 -18t24 -44q-7 -19 -25 -45q-27 -39 -54 -77q-62 -112 -93 -201q-40 -114 -40 -214q0 -18 -23 -29t-44 -11q-26 0 -40.5 14.5t-14.5 41.5q0 80 64 241 q33 82 105 235q-31 -3 -76.5 -6t-75.5 -3z"/>
<glyph glyph-name="eight" horiz-adv-x="509" unicode="8" d="M133 129q0 -25 33 -36q22 -7 55 -7t50.5 11t17.5 28q0 21 -35 59q-15 17 -52 50q-26 -21 -45 -46q-24 -32 -24 -59zM397 525q-4 2 -15.5 15t-22.5 13q-52 0 -123 -23q-90 -29 -90 -69q0 -16 26 -48q20 -24 40 -42q55 40 95 73q50 41 90 81zM410 105q0 -57 -72 -85 q-52 -20 -122 -20q-73 0 -123 26q-66 34 -66 100q0 48 36 97q16 22 72 79q-41 39 -64 75q-30 47 -30 92q0 90 132 139q100 37 210 37q60 0 95 -13q55 -20 55 -69q0 -14 -8.5 -25.5t-21.5 -19.5q-15 -52 -97 -117q-64 -50 -128 -99q64 -67 82 -90q50 -64 50 -107z"/>
<glyph glyph-name="nine" horiz-adv-x="521" unicode="9" d="M320 552q-61 0 -126 -73t-65 -136q0 -25 17 -40t41 -15q69 0 129.5 66.5t60.5 135.5q0 29 -14 45.5t-43 16.5zM177 192q-65 0 -111 41t-46 105q0 102 108.5 213.5t209.5 111.5q26 0 39 -11q24 -20 29 -23q21 8 43 16q23 0 47.5 -20.5t24.5 -43.5q0 -36 -14 -87l-42 -154 q-7 -48 -10 -111.5t-3 -113.5v-76q0 -19 -18.5 -29t-38.5 -10q-32 0 -44 32t-12 84q0 29 4 78t4 60q-41 -29 -83.5 -45.5t-86.5 -16.5z"/>
<glyph glyph-name="colon" horiz-adv-x="241" unicode=":" d="M129 356q26 0 45.5 -13t19.5 -39q0 -31 -28.5 -51t-60.5 -20q-28 0 -46.5 14t-18.5 41q0 31 28 49.5t61 18.5zM129 123q26 0 45.5 -14t19.5 -39q0 -30 -28.5 -50t-60.5 -20q-27 0 -46 14t-19 41q0 31 28 49.5t61 18.5z"/>
<glyph glyph-name="semicolon" horiz-adv-x="241" unicode=";" d="M129 356q26 0 45.5 -13t19.5 -39q0 -31 -28.5 -51t-60.5 -20q-28 0 -46.5 14t-18.5 41q0 31 28 49.5t61 18.5zM96 -4q-22 0 -40 15t-18 36q0 34 26 54.5t61 20.5q34 0 53 -21t19 -55q0 -45 -33 -99q-37 -60 -80 -60q-22 0 -22 19q19 18 36.5 40.5t22.5 53.5 q-11 -4 -25 -4z"/>
<glyph glyph-name="less" horiz-adv-x="479" unicode="&lt;" d="M428 372q0 -19 -31 -46t-77 -53q-26 -14 -74 -34.5t-111 -44.5q37 -16 77.5 -30.5t73.5 -25.5t66 -17t58 -6q10 0 18 -14q8 -19 8 -47q0 -23 -5 -37.5t-19 -14.5q-3 0 -24.5 6.5t-48.5 15.5q-17 4 -33 10q-8 2 -16.5 6t-16.5 7q-38 14 -74.5 28.5t-68.5 28.5 q-37 17 -63 29t-34 18q-2 4 -4.5 10t-3.5 9q-1 6 -1.5 14.5t-0.5 16.5q0 23 5.5 39t19.5 19q32 8 74.5 23.5t88.5 38.5q47 21 87.5 45.5t74.5 49.5q2 2 4 6l1 4l2 -2q1 2 2 2h1q2 0 6 2q1 0 1 0.5t1 0.5l1 1q17 0 26.5 -17.5t9.5 -40.5z"/>
<glyph glyph-name="equal" horiz-adv-x="499" unicode="=" d="M273 183q42 0 72 -2t50 -6q72 -12 72 -53q0 -17 -6 -28.5t-22 -11.5q-11 0 -21 3q-36 8 -81.5 10.5t-90.5 2.5h-41q-8 0 -22.5 -0.5t-35.5 -1.5q-20 -2 -39 -5l-38 -6q-19 0 -28.5 12t-9.5 29q0 27 36 41q38 16 128 16h77zM273 378q84 0 122 -7q72 -14 72 -54 q0 -16 -6 -28t-22 -12q-11 0 -21 3q-36 8 -81.5 11t-90.5 3h-41q-16 0 -58 -3q-20 -2 -39 -5l-38 -6q-19 0 -28.5 12.5t-9.5 28.5q0 27 36 42q20 8 51.5 11.5t76.5 3.5h77z"/>
<glyph glyph-name="greater" horiz-adv-x="479" unicode="&gt;" d="M49 372q0 23 9.5 40.5t26.5 17.5q4 0 9 -4v1q1 -1 1.5 -1t1.5 -1l2 -5q36 -27 78.5 -52.5t88.5 -47.5q44 -21 88 -37.5t75 -23.5q14 -3 19.5 -19t5.5 -39q0 -28 -10 -50q-6 -5 -26.5 -14.5t-51.5 -23.5q-5 -2 -9.5 -4.5t-9.5 -4.5q-40 -18 -83.5 -35t-91.5 -34 q1 1 -2.5 -0.5t-5.5 -2.5q-4 -2 -7 -2q-42 -14 -65.5 -21t-26.5 -7q-14 0 -19 14.5t-5 37.5q0 28 9 48q6 13 17 13q25 0 56 6t68 17q35 10 74 24t77 32q-62 23 -109.5 43.5t-75.5 35.5q-46 26 -77 53t-31 46z"/>
<glyph glyph-name="question" horiz-adv-x="474" unicode="?" d="M146 119q26 0 44 -11t18 -36q0 -33 -35 -54q-30 -18 -66 -18q-25 0 -42 10q-22 13 -22 36q0 32 33.5 52.5t69.5 20.5zM333 556q0 17 -12 26t-29 9q-59 0 -97 -62q-26 -50 -52 -99q-16 -7 -31 -7q-50 0 -50 54q0 78 84.5 149t164.5 71q56 0 95 -36t39 -93q0 -75 -72 -145 q-19 -19 -136 -105q-73 -54 -73 -86q0 -12 5 -24.5t10 -24.5q-7 -15 -25.5 -23.5t-36.5 -8.5q-26 0 -40 17t-14 43q0 70 70 139q65 53 130 107q70 58 70 99z"/>
<glyph glyph-name="at" horiz-adv-x="859" unicode="@" d="M524 57q-82 -47 -155 -47q-57 0 -98 26q-45 28 -45 75q0 79 92 137q77 47 182 61l2 24q0 27 -4 36q-8 21 -28 21q-33 0 -57 -26q-55 -58 -73 -58q-20 0 -36 12.5t-16 27.5q0 44 67 88t124 44q85 0 118 -64q28 -48 28 -137q0 -41 -5 -103v-20.5t-3 -20.5l-24 -35 q15 -17 37 -17q3 0 17 1.5t28 15.5q45 111 45 209q0 43 -18.5 130t-148.5 114q-33 5 -64 5q-133 0 -221.5 -102.5t-104 -178.5t-15.5 -119t15.5 -94.5t75.5 -89.5t157 -38q29 0 60 3t53 3q80 0 80 -33q0 -4 -7 -32t-131 -32h-10q-346 0 -397 263q-3 30 -3 60q0 142 78 279 q136 206 378 206q24 0 48 -2q146 -20 223 -118q19 -38 27 -66.5t12.5 -51t5.5 -40.5t3 -36q-8 -296 -85 -314t-104 -18q-71 0 -103 52zM342 122q0 -24 34 -24q35 0 74.5 18.5t48.5 42.5q3 9 3 20v17v23q-51 0 -102 -27q-58 -30 -58 -70z"/>
<glyph glyph-name="A" horiz-adv-x="491" unicode="A" d="M243 458q-20 -51 -37.5 -100.5t-33.5 -106.5q29 4 56.5 6t58.5 2q-5 31 -21 98t-23 101zM460 201q0 -42 -33 -42q-8 0 -12 1q12 -34 18 -50q10 -26 23 -49q1 -3 5 -11.5t4 -11.5q0 -18 -15.5 -29.5t-34.5 -11.5q-50 0 -80 90q-4 11 -20 74l-31 1h-51q-70 0 -87 -18 q-22 -23 -22 -110q0 -14 -14.5 -23.5t-28.5 -9.5q-25 0 -41.5 17.5t-16.5 43.5q0 27 42.5 170t83.5 256q50 139 72 161q16 16 42 16q30 0 51 -27q2 -2 25.5 -125t48.5 -253q42 -7 57 -22t15 -37z"/>
<glyph glyph-name="B" horiz-adv-x="489" unicode="B" d="M364 486q0 35 -78 55q-56 14 -109 14q-6 -37 -11 -83t-5 -84q51 0 119 25q84 31 84 73zM143 133q0 -21 10 -30t50 -9q55 0 97 21q55 27 55 76q0 48 -63 74q-48 20 -104 20q-17 0 -37 -5q0 -24 -4 -73t-4 -74zM77 554l-14 -2l-21 10q-7 16 -7 29q0 35 38 50q26 10 69 10 q105 0 196 -34q125 -46 125 -131q0 -51 -44 -90q-34 -30 -92 -52q59 -23 89 -58q35 -40 35 -99q0 -93 -85 -144q-72 -43 -171 -43q-90 0 -125 35q-29 29 -29 94q0 29 2 56q7 94 7 110q-8 11 -12.5 22t-4.5 22q0 24 24 34q0 40 6.5 87.5t13.5 93.5z"/>
<glyph glyph-name="C" horiz-adv-x="445" unicode="C" d="M408 214q0 -84 -55 -150q-59 -70 -141 -70q-90 0 -140 69q-45 62 -45 155q0 62 28 165q32 118 78 195q56 95 117 95q55 0 95 -61q35 -54 35 -112q0 -30 -13 -52t-42 -22q-24 0 -32 9t-8 25q0 5 1 15t1 15q0 20 -8 38t-24 25q-50 -18 -89 -147q-33 -109 -33 -182 q0 -52 13 -85q19 -49 63 -49q65 0 91 90t62 90q21 0 33.5 -17t12.5 -39z"/>
<glyph glyph-name="D" horiz-adv-x="477" unicode="D" d="M341 311q0 78 -48 142.5t-122 96.5q-28 -215 -28 -438q82 0 140 58t58 141zM40 632q0 23 16 36t39 13q130 0 239 -122q106 -119 106 -249q0 -118 -78 -202t-197 -96q-33 -8 -65 -16q-36 0 -49 38q-9 26 -9 73v21q0 107 6.5 222t18.5 236q-11 8 -19 20t-8 26z"/>
<glyph glyph-name="E" horiz-adv-x="452" unicode="E" d="M153 158q0 -19 5 -39q7 -6 32.5 -8t32.5 -2q20 0 42.5 1t46.5 3q49 0 74 -8q43 -14 43 -53q0 -12 -5 -24t-13 -21l-16 -7q-19 0 -38 3q-57 9 -65 9q-37 0 -75 -3q-113 -9 -124 -9q-28 0 -38 34t-10 89q0 31 1.5 54.5t3.5 53.5q-12 17 -16 26q-7 15 -7 30q0 13 7 21t21 15 q0 55 9 117.5t18 122.5q-3 6 -8.5 20.5t-5.5 19.5q0 43 92 57q45 7 124 7q80 0 110 -13.5t30 -47.5q0 -14 -11.5 -33t-21.5 -19l-6 1q-15 6 -30 7.5t-42 1.5h-21t-22 1q-28 0 -48.5 -3.5t-35.5 -14.5q-8 -22 -15 -98.5t-7 -109.5q16 0 47 2t47 2q58 0 81 -6q49 -13 49 -53 q0 -39 -35 -50q-39 9 -77 9q-20 0 -60 -3t-59 -3q0 -13 -2 -45t-2 -34z"/>
<glyph glyph-name="F" horiz-adv-x="431" unicode="F" d="M152 150q0 -21 9 -76q5 -31 5 -45t-18 -22t-35 -8q-41 0 -58 43q-13 33 -13 96q0 27 3 70t3 54q-11 14 -16 25.5t-5 26.5q0 26 27 36q0 56 11 131q6 40 13 80q-6 12 -8 20q-5 15 -5 22q0 38 77 53q51 10 124 10h21q61 0 84 -6q50 -13 50 -56q0 -15 -10.5 -32t-24.5 -17 q-9 0 -30 4t-32 4h-70q-47 -2 -68 -13q-9 -19 -15.5 -93t-7.5 -91q49 4 69.5 4.5t33.5 0.5q54 0 77 -7q44 -13 44 -55q0 -37 -34 -48q-33 10 -66 10q-61 0 -130 -8q0 -26 -1 -42q-4 -65 -4 -71z"/>
<glyph glyph-name="G" horiz-adv-x="457" unicode="G" d="M197 -5q-81 0 -126 70q-38 60 -38 146q0 70 26 174q31 122 78 201q58 97 127 97q62 0 101 -53q36 -49 36 -113q0 -34 -9 -57q-13 -34 -41 -34q-25 0 -34 10t-9 29q0 9 1 19.5t2 21.5q0 27 -8 49q-11 30 -33 30q-52 0 -95 -158q-35 -128 -35 -206q0 -49 13 -81 q19 -47 60 -47q42 0 71.5 39.5t29.5 84.5q0 14 -10.5 19t-28.5 5q-11 0 -24.5 -1.5t-28.5 -2.5l-16 8l-6 19q0 40 34 55q25 11 69 11q54 0 80.5 -14.5t26.5 -39.5q0 -30 -7 -92t-7 -95q0 -16 4 -34t8 -35q-4 -11 -13 -18q-15 -12 -36 -12q-23 0 -35 18.5t-15 43.5 q-25 -28 -51.5 -42.5t-60.5 -14.5z"/>
<glyph glyph-name="H" horiz-adv-x="526" unicode="H" d="M285 189q-32 0 -61.5 -0.5t-64.5 -6.5l-1 -67q0 -15 6 -44t6 -41q0 -15 -17 -23t-35 -8q-40 0 -56 38q-12 28 -12 82q0 13 1 35t1 29q-13 7 -22.5 19t-9.5 26q0 17 10 28t27 15q0 57 14 227q7 85 7 137q0 15 16 23.5t32 8.5q25 0 47 -14.5t22 -37.5q0 -51 -9 -122 q-21 -167 -21 -208q33 0 110.5 2t82.5 2q11 118 16 189t5 157q0 15 16 22.5t32 7.5q25 0 47.5 -14t22.5 -39q0 -57 -9.5 -146t-19.5 -185t-10 -156q0 -29 2.5 -44t11.5 -50q-6 -17 -19.5 -24.5t-33.5 -7.5q-40 0 -57 38q-13 29 -13 81q0 13 1 27t4 42z"/>
<glyph glyph-name="I" horiz-adv-x="219" unicode="I" d="M167 33q0 -15 -17.5 -24t-34.5 -9q-47 0 -61 44q-8 24 -8 83q0 76 7 165.5t14.5 185.5t7.5 159q0 15 15.5 23t32.5 8q24 0 46.5 -15t22.5 -39q0 -28 -5 -60t-10 -62q-23 -202 -23 -401q0 -10 4 -23q9 -30 9 -35z"/>
<glyph glyph-name="J" horiz-adv-x="368" unicode="J" d="M62 242q42 0 42 -42q0 -30 20.5 -68t47.5 -38q41 0 52 124q4 46 4 108v38q0 92 -5 153t-23 127q7 16 23 21.5t37 5.5q43 0 61 -52q13 -39 13 -107q0 -16 -1 -42t-1 -33v-64q0 -98 -7 -161q-11 -99 -40 -153q-37 -69 -102 -69q-66 0 -121 65.5t-55 132.5q0 24 15 39t40 15 z"/>
<glyph glyph-name="K" horiz-adv-x="474" unicode="K" d="M141 126q0 -26 5.5 -51t8.5 -42q-5 -16 -19.5 -24t-32.5 -8q-47 0 -62 46q-8 25 -8 84q0 83 8 190q19 254 19 317q0 18 26 26q13 4 24 4q25 0 46.5 -14t21.5 -38q0 -29 -14 -121q-7 -46 -7 -75q25 32 70 81q61 67 104 105q59 52 86 52q24 0 41 -19t17 -44 q0 -4 -4.5 -13.5t-8.5 -10.5q-33 -10 -87 -60q-39 -36 -99 -103q-39 -44 -77 -87q48 -62 112 -126q89 -89 124 -89h2l13 -8q1 -4 3.5 -11t2.5 -10q0 -27 -13 -49q-16 -28 -41 -28q-43 0 -139 95q-73 73 -119 135z"/>
<glyph glyph-name="L" horiz-adv-x="400" unicode="L" d="M283 115q46 0 71 -10q40 -16 40 -54q0 -15 -10 -33t-24 -18q-15 0 -37 4q-54 10 -66 10q-34 0 -100 -7t-98 -7q-19 0 -32.5 13.5t-13.5 32.5q0 26 25 39l-1 37q0 74 6.5 166t14 190.5t7.5 157.5q0 15 15.5 23t31.5 8q26 0 48.5 -13.5t22.5 -37.5q0 -68 -12 -175 q-26 -232 -26 -297v-37q23 0 69 4t69 4z"/>
<glyph glyph-name="M" horiz-adv-x="657" unicode="M" d="M568 668q25 0 41 -12t25 -35q-22 -106 -30.5 -222t-8.5 -242q0 -19 7 -75q4 -32 4 -45q0 -16 -19 -26.5t-37 -10.5q-38 0 -53 32q-11 23 -11 69v22t1 22q0 48 7 189q4 81 4 114q-37 -48 -67 -92q-41 -59 -58 -97q-11 -33 -22 -65l-13.5 -4.5t-11.5 -2.5q-61 0 -113 150 q-18 54 -35 109q-12 -120 -12 -241q0 -28 5 -64q12 -87 12 -106q0 -17 -20 -27t-38 -10q-39 0 -55 57q-11 40 -11 115v41t1 36v59q0 98 5.5 170t24.5 127q23 67 64 67q47 0 77 -42q1 -1 4 -12t4 -15q13 -53 36 -114q15 -39 46 -111q74 113 113 165q95 127 134 127z"/>
<glyph glyph-name="N" horiz-adv-x="539" unicode="N" d="M452 667q18 0 32.5 -11.5t14.5 -29.5q0 -54 -11 -171t-11 -177q0 -38 10 -161q5 -61 5 -96q0 -13 -16.5 -19.5t-30.5 -6.5q-41 0 -105 94q-51 75 -107 188q-15 30 -66 142q-4 -34 -5 -65.5t-1 -73.5q0 -66 5 -128t17 -123q-5 -15 -19 -22.5t-32 -7.5q-45 0 -63 60 q-13 43 -13 120v40t1 36q0 115 5 196q9 145 31 182q9 15 24 21.5t35 6.5q11 0 19.5 -1.5t16.5 -6t13 -26t10 -40.5q25 -74 72 -168q35 -70 88 -163q0 9 -1.5 59t-1.5 67q0 155 25 226q21 59 59 59z"/>
<glyph glyph-name="O" d="M143 273q0 -66 14 -108q22 -65 74 -65q84 0 116 171q13 69 13 130q0 66 -10 100q-18 63 -67 63q-41 0 -66 -51.5t-43 -51.5q-15 -45 -23 -92.5t-8 -95.5zM314 653q82 0 123 -99q31 -75 31 -170q0 -145 -50 -249q-65 -136 -194 -136q-101 0 -151 91q-40 73 -40 184 q0 102 51 242q63 172 145 172q17 0 30.5 -11t21.5 -28q8 1 15.5 2.5t17.5 1.5z" unicode="O"/>
<glyph glyph-name="P" horiz-adv-x="479" unicode="P" d="M360 460q0 43 -56 68q-43 19 -94 19l-22 -1q-9 -68 -13 -101q-7 -59 -7 -102q59 6 117 34q75 36 75 83zM81 550q-16 6 -25 16t-9 26q0 23 34 48.5t57 25.5q24 0 42 -20q149 -13 219 -69q59 -47 59 -121t-63 -126q-80 -66 -234 -89q0 -22 -2 -66t-2 -66q0 -14 10 -48 q5 -17 5 -28q-11 -33 -52 -33t-58 43q-13 33 -13 95q0 34 1.5 59.5t4.5 59.5q-11 15 -15 23q-7 13 -7 26l6 17l21 9q0 49 11 135q8 64 10 83z"/>
<glyph glyph-name="Q" horiz-adv-x="500" unicode="Q" d="M234 195q0 20 12.5 33.5t31.5 13.5q20 0 35 -19q7 -11 15 -22q16 44 24 98.5t8 106.5q0 61 -11 97q-19 60 -66 60q-42 0 -66 -49l-22 -48q-13 -8 -21 -5q-15 -50 -23 -94.5t-8 -95.5q0 -66 14 -107q22 -65 75 -65q10 0 15 1.5t15 7.5q-19 48 -21 55q-7 22 -7 32zM456 0 l17 4l9 -9l4 -23q0 -56 -47 -56q-39 0 -75 34q-22 21 -52 68q-19 -8 -43 -14t-43 -6q-103 0 -153 93q-40 74 -40 185q0 102 51 240q63 171 146 171q18 0 30 -10t21 -28l33 3q82 0 123 -97q31 -73 31 -168q0 -90 -18 -161.5t-62 -142.5q16 -34 26 -48q18 -25 42 -35z"/>
<glyph glyph-name="R" horiz-adv-x="470" unicode="R" d="M347 491q0 40 -100 57q-40 7 -70 7q-4 -29 -8.5 -62.5t-12.5 -116.5q63 14 114 38q77 36 77 77zM33 599q0 24 17.5 37.5t41.5 13.5q19 21 41 21q24 0 46 -20q92 0 165 -36q94 -46 94 -131q0 -66 -67 -118q-50 -39 -128 -65q46 -64 93 -128q53 -66 116 -103q2 -8 5 -15 q0 -22 -20.5 -39.5t-43.5 -17.5q-41 0 -102 63q-65 67 -143 193l-2 -80q0 -66 17 -146q-6 -15 -20 -23t-32 -8q-35 0 -52 28q-20 32 -20 112v40q0 100 7.5 192.5t23.5 184.5q-19 8 -26 16q-11 11 -11 29z"/>
<glyph glyph-name="S" horiz-adv-x="480" unicode="S" d="M68 165q31 -30 65 -52.5t82 -22.5q38 0 63 7q42 12 42 39q0 22 -72 54q-100 44 -134 69q-72 53 -72 130q0 78 129 176q124 94 205 94q47 0 68 -43q16 -33 16 -86q0 -55 -12 -89q-18 -51 -63 -51q-16 0 -27.5 9t-15.5 25q13 27 17.5 38.5t4.5 34.5q0 18 -4 32t-18 14 q-42 0 -117.5 -59t-75.5 -100q0 -33 74 -71q136 -69 139 -71q75 -48 75 -106q0 -74 -89 -110q-65 -26 -153 -26q-64 0 -110 19q-65 27 -65 80q0 25 12.5 45.5t35.5 20.5z"/>
<glyph glyph-name="T" horiz-adv-x="479" unicode="T" d="M280 181q0 -76 15 -150q-6 -17 -22 -25t-38 -8q-39 0 -53 42q-10 29 -10 81v23q0 63 5 133.5t10.5 149t5.5 127.5q-23 0 -41 -2q-64 -7 -69 -7l-24 4q-17 15 -23.5 27.5t-6.5 32.5q0 28 12.5 37t35.5 9q8 0 16.5 -0.5t17.5 -0.5q43 0 187 12q72 6 113 6q38 0 57 -9 q28 -13 28 -48q0 -29 -12 -40t-34 -11q-12 0 -33.5 2.5t-25.5 2.5q-43 0 -84 -7q-12 -101 -19.5 -196.5t-7.5 -184.5z"/>
<glyph glyph-name="U" horiz-adv-x="522" unicode="U" d="M214 -6q-98 0 -145 97q-36 74 -36 183t20 220q30 169 89 169q18 0 38 -13t20 -30q-5 -18 -9 -36q-26 -81 -38 -163.5t-12 -171.5q0 -55 8 -86q14 -56 53 -56q61 0 104 140q27 88 52 264q21 147 28.5 153t17.5 8.5t26 2.5q26 0 44 -11t18 -36q0 -58 -11 -136 q-26 -185 -26 -233q0 -42 12 -93.5t25 -103.5q0 -19 -14.5 -32.5t-33.5 -13.5q-49 0 -71 61q-9 26 -15 61q-31 -78 -71 -114q-34 -30 -73 -30z"/>
<glyph glyph-name="V" horiz-adv-x="477" unicode="V" d="M432 650q24 0 42.5 -15.5t18.5 -38.5q-26 -56 -52 -111q-63 -136 -98 -232q-53 -145 -53 -218q0 -16 -19.5 -26t-37.5 -10q-41 0 -91 137q-39 108 -73 269q-30 142 -30 189q0 57 57 57q31 0 42.5 -9t11.5 -54q0 -42 28 -180q25 -122 43 -185q56 181 119 310 q57 117 92 117z"/>
<glyph glyph-name="W" horiz-adv-x="723" unicode="W" d="M237 24l-11 -20q-16 -7 -30 -7t-23.5 2.5t-19.5 9.5q-26 20 -55 151q-24 110 -41 242t-17 186q0 30 7.5 46.5t33.5 16.5q46 0 62 -30q12 -22 12 -68q0 -10 -0.5 -19.5t-0.5 -18.5q0 -70 6.5 -129.5t22.5 -122.5q21 62 42 125q38 109 68 173q41 88 65 88q27 0 46.5 -14 t33.5 -39q12 -74 25 -154q27 -162 41 -202q28 103 36 131q35 120 60 183q37 92 62 92q26 0 47 -15.5t21 -41.5q0 -29 -43 -140q-60 -154 -79 -211q-44 -128 -44 -188q0 -9 2 -25l-13 -19q-18 -7 -33 -7q-45 0 -84 90q-29 66 -55 184q-1 3 -29 148q-38 -98 -76 -195 q-39 -114 -39 -202z"/>
<glyph glyph-name="X" horiz-adv-x="473" unicode="X" d="M116 16q-3 -31 -39 -31q-23 0 -40 12.5t-17 35.5q0 39 55 155q35 73 80 154q-38 67 -70 133q-49 101 -49 136q0 24 20.5 40.5t44.5 16.5q6 0 12 -1t18 -7q7 -9 54 -130q26 -67 33 -81q39 75 45 85q73 130 112 130q23 0 45.5 -18.5t22.5 -41.5q0 -6 -21 -30 q-27 -31 -28 -33q-19 -29 -45 -73q-48 -84 -72 -125q42 -73 63 -108q33 -55 67 -106l62 -74q0 -21 -19.5 -33t-41.5 -12q-44 0 -109 91q-1 1 -83 135q-34 -61 -58 -109q-39 -79 -42 -111z"/>
<glyph glyph-name="Y" horiz-adv-x="463" unicode="Y" d="M70 527q-3 7 -24 47q-16 31 -20 47l9 23q7 9 21.5 16.5t27.5 7.5q52 0 101 -126q11 -27 54 -176q59 149 68 168q59 125 100 125q24 0 45 -13t21 -36q0 -5 -19 -39l-50 -88q-37 -76 -72 -167q-26 -69 -61 -173q-14 -59 -23 -93q-18 -63 -45 -63q-29 0 -50.5 16t-21.5 44 q0 24 18 77q12 36 30 76q-18 78 -48 165q-23 69 -61 162z"/>
<glyph glyph-name="Z" horiz-adv-x="494" unicode="Z" d="M326 119q73 0 101.5 -15t28.5 -48q0 -17 -7 -33.5t-23 -16.5q-24 0 -73 4t-75 4q-38 0 -112 -7t-110 -7q-22 0 -36 19t-14 42q0 37 67 142q50 78 138 193q67 88 111 139q-24 0 -60 -4q-81 -9 -101 -9q-35 0 -56 13q-25 16 -25 49q0 19 8.5 35t24.5 23q17 -2 37.5 -4.5 t33.5 -2.5q37 0 136 9q55 5 82 5q39 0 60 -8q33 -12 33 -44q0 -14 -7.5 -30.5t-80 -109t-145.5 -184.5q-86 -111 -115 -159q38 0 102 2.5t77 2.5z"/>
<glyph glyph-name="bracketleft" horiz-adv-x="430" unicode="[" d="M414 595q0 -12 -4 -26t-9 -20v1q-6 -4 -14 -8q-3 1 -10 2.5t-16 3.5l-12 3q-30 9 -53 9q-21 0 -27 -3q-3 -1 -9 -5.5t-15 -12.5q-8 -8 -16.5 -65.5t-16.5 -168.5q-7 -110 -10.5 -186t-3.5 -121q0 -37 6 -74q10 -11 21 -14t28 -3h16.5t17.5 1q3 0 6 0.5t6 0.5q38 0 57 -8 q26 -15 26 -53q0 -7 -1.5 -14t-6.5 -18q-15 -10 -35 -10q-12 0 -34 3q-21 3 -24 3q-10 0 -29.5 -2t-49.5 -6q-17 -2 -29.5 -3.5t-19.5 -1.5q-26 0 -37 37q-9 37 -9 89v37q0 45 1.5 103.5t5.5 133.5t9.5 140.5t13.5 120.5q11 72 23.5 116.5t28.5 55.5q21 15 55 18.5t81 3.5 q43 0 58 -6q31 -14 31 -53z"/>
<glyph glyph-name="backslash" horiz-adv-x="489" unicode="\" d="M81 654q34 -21 130 -204q47 -90 89.5 -178.5t81.5 -176.5q87 -200 87 -245q0 -26 -15 -38.5t-38 -12.5l-22 5q-7 13 -12 26.5t-9 25.5q-4 10 -7.5 20.5t-6.5 18.5q-2 5 -3 10.5t-1 15.5t2 12l-8 -3q-37 89 -74 172t-78 168q-19 39 -35 70q-15 30 -24 49q-4 5 -7 15 q-1 3 -2 4t-2 4v-2q-7 14 -12.5 26t-11.5 24q-5 12 -12.5 25.5t-14.5 25.5q-9 16 -19.5 31t-21.5 31q-2 4 -5.5 10.5t-8.5 12.5q12 51 53 59z"/>
<glyph glyph-name="bracketright" horiz-adv-x="427" unicode="]" d="M328 200q0 -29 -1 -73t-3 -104q-3 -119 -3 -178q0 -8 -2 -14t-8 -17q-7 -2 -34 -4t-68 -4q-90 -3 -137 -3q-31 0 -31 36q0 35 21 50.5t80 15.5h28q16 0 24.5 2.5t24.5 10.5q4 10 6 30.5t2 35.5v39q0 87 12 198q14 134 21 212t7 102l-7 19l-32 3q-28 0 -59 -6 q-24 -5 -38.5 -7.5t-19.5 -3.5q-3 2 -7 4t-7 4q-2 5 -3 10t-2 9q0 29 21 49t58 30q37 8 72 8q48 0 75 -8q21 -8 33.5 -22.5t12.5 -35.5q0 -28 -3 -63.5t-8 -77.5q-12 -93 -18.5 -158t-6.5 -89z"/>
<glyph glyph-name="asciicircum" horiz-adv-x="470" unicode="^" d="M114 443q-23 0 -38 18.5t-15 53.5q0 14 4.5 27.5t14.5 14.5q1 -1 5.5 -2t9.5 -2q8 -2 13 -2q31 0 64 41q16 22 34 48q9 12 18 24.5t18 25.5q19 0 52 -68q30 -62 64 -62q-3 0 1.5 1.5t9.5 3.5t12 4t11 2q6 0 10 -5t6.5 -12.5t3 -15.5t0.5 -14q0 -36 -18 -57t-44 -21 q-30 0 -58.5 28t-51.5 73q-14 -22 -27.5 -39.5t-24.5 -29.5q-40 -35 -74 -35z"/>
<glyph glyph-name="underscore" horiz-adv-x="513" unicode="_" d="M284 -88q50 0 86 -2t59 -6q84 -16 84 -58q0 -17 -7 -30.5t-24 -13.5q-11 0 -27 3q-42 9 -95 12.5t-109 3.5h-48q-10 0 -27.5 -1t-40.5 -3q-24 -3 -47 -6t-47 -6q-21 0 -31.5 14t-10.5 31q0 29 41 45q49 17 153 17h91z"/>
<glyph glyph-name="grave" horiz-adv-x="224" unicode="`" d="M11 650q0 42 43 42q9 0 34 -19.5t54 -47.5q30 -29 50 -53.5t20 -34.5q0 -20 -10 -31.5t-33 -11.5q-22 0 -90 67q-3 3 -7 9q-28 29 -44.5 48.5t-16.5 31.5z"/>
<glyph glyph-name="a" horiz-adv-x="382" unicode="a" d="M103 123q0 -24 30 -24q28 0 61 18t40 43q2 9 2 20v17v22q-42 0 -84 -26q-49 -30 -49 -70zM127 10q-49 0 -82 25q-38 29 -38 76q0 80 77 137q63 47 151 62l1 24q0 26 -3 36q-6 21 -25 21q-26 0 -46 -26q-45 -58 -60 -58q-16 0 -29.5 11.5t-13.5 28.5q0 44 56 88t102 44 q70 0 99 -64q22 -48 22 -138q0 -40 -2 -71t-4 -73q0 -17 5.5 -38.5t11.5 -43.5q0 -19 -21.5 -35.5t-42.5 -16.5q-19 0 -32 14t-19 34q-48 -37 -107 -37z"/>
<glyph glyph-name="b" horiz-adv-x="388" unicode="b" d="M269 306q0 27 -10 44q-13 21 -38 21q-50 0 -72 -64q-15 -43 -15 -106q0 -25 1 -51.5t4 -51.5q53 25 91.5 86.5t38.5 121.5zM42 186q0 169 13 303t33 148q12 8 31 8q20 0 36 -8.5t22 -27.5q-13 -50 -18.5 -88.5t-5.5 -84.5q23 11 41.5 17t38.5 6q63 0 98 -50 q31 -45 31 -110q0 -104 -73 -198q-78 -101 -179 -101q-30 0 -51 12q-26 15 -26 44q0 11 12 21z"/>
<glyph glyph-name="c" horiz-adv-x="372" unicode="c" d="M345 158q0 -55 -63.5 -107.5t-119.5 -52.5q-64 0 -101.5 40.5t-37.5 105.5q0 79 44 189q52 131 117 131q40 0 77.5 -35.5t37.5 -76.5q0 -21 -14 -34t-35 -13q-25 0 -35 27t-17 30q-31 -23 -55 -90.5t-24 -113.5q0 -27 10.5 -49t34.5 -22q43 0 79 63t55 63q20 0 33.5 -17 t13.5 -38z"/>
<glyph glyph-name="d" horiz-adv-x="418" unicode="d" d="M217 388q-39 0 -70 -100q-26 -84 -26 -139q0 -23 5.5 -43t23.5 -20q41 0 76 93q29 78 29 130q0 31 -5 48q-9 31 -33 31zM295 594q0 18 13.5 26t33.5 8q24 0 40.5 -13.5t16.5 -37.5q0 -53 -10 -129q-23 -175 -23 -221q0 -30 14 -113q7 -42 7 -65q0 -14 -17.5 -25.5 t-32.5 -11.5q-25 0 -38 19t-19 73q-21 -44 -52 -71q-38 -33 -81 -33q-61 0 -95 55q-29 47 -29 112q0 93 46 194q56 123 137 123q22 0 40.5 -10t35.5 -29q5 31 9 73.5t4 75.5z"/>
<glyph glyph-name="e" horiz-adv-x="411" unicode="e" d="M256 376q0 15 -12 15q-30 0 -68 -62q-29 -48 -43 -92q39 21 77 59q46 46 46 80zM178 88q57 0 93 40l66 88q22 0 38 -15t16 -37q0 -62 -73 -115q-68 -49 -133 -49q-71 0 -118 42.5t-47 113.5q0 93 66 200q73 119 159 119q43 0 69.5 -31.5t26.5 -75.5q0 -81 -73 -148 q-64 -59 -151 -80q11 -52 61 -52z"/>
<glyph glyph-name="f" horiz-adv-x="308" unicode="f" d="M154 130q0 -18 8 -51t8 -46q0 -17 -16 -24.5t-34 -7.5q-28 0 -42 21q-17 25 -17 88v39q0 52 3.5 106t10.5 116q-23 -4 -45 -7q-12 0 -19.5 11.5t-7.5 23.5q0 33 27 49q15 9 55 18q14 74 51 118q45 53 115 53q27 0 46.5 -12t19.5 -38q0 -20 -14 -35t-34 -15q-4 0 -16 3.5 t-18 3.5q-22 0 -35 -21.5t-16 -45.5l48 1q40 0 59 -9q27 -13 27 -49q0 -3 -1 -8t-4 -13l-13 -8q-8 2 -26 2q-28 0 -56.5 -3t-45.5 -5q-10 -62 -14 -125t-4 -130z"/>
<glyph glyph-name="g" horiz-adv-x="396" unicode="g" d="M217 398q-39 0 -69 -94q-25 -78 -25 -128q0 -27 4 -39q8 -23 29 -23q41 0 72 85q25 69 25 121q0 33 -4 48q-8 30 -32 30zM313 485q18 0 37 -15t19 -32q0 -20 -5 -47q-13 -70 -13 -83q0 -60 -1 -121t-2 -121q0 -110 -45 -169q-51 -67 -159 -67q-50 0 -94 20q-57 26 -57 69 q0 18 13 37.5t31 19.5q27 -21 54.5 -38t58.5 -17q48 0 76 42q25 37 25 87l-1 45q-22 -39 -43 -58q-28 -26 -64 -26q-59 0 -92 58q-28 49 -28 112q0 93 46 190q56 118 138 118q39 0 69 -27q9 10 16 15q11 8 21 8z"/>
<glyph glyph-name="h" horiz-adv-x="395" unicode="h" d="M271 480q37 0 59 -85.5t22 -218.5v-41q0 -60 -9 -92q-14 -49 -49 -49q-18 0 -38 10t-20 28q0 14 12 72q6 29 6 46v15q0 73 -5 108t-16 46q-48 -55 -73.5 -135.5t-25.5 -157.5q0 -17 -16 -27.5t-34 -10.5q-29 0 -41.5 19t-12.5 51q0 86 9 186t18.5 206.5t9.5 180.5 q0 18 15.5 27t35.5 9q32 0 46 -23q11 -18 11 -53q0 -43 -8 -97q-19 -129 -19 -161q40 72 50 87q41 60 73 60z"/>
<glyph glyph-name="i" horiz-adv-x="207" unicode="i" d="M109 634q26 0 49 -14t23 -39q0 -22 -16.5 -34t-39.5 -12q-28 0 -51 15t-23 41q0 20 19 31.5t39 11.5zM100 1q-35 0 -51 31q-12 23 -12 63q0 51 8 154t8 156q0 6 -3 19t-3 19q0 18 20.5 27t41.5 9q23 0 36.5 -10t13.5 -32q0 -43 -11 -148t-11 -159q0 -15 3 -35 q7 -47 7 -57q0 -16 -15 -26.5t-32 -10.5z"/>
<glyph glyph-name="j" horiz-adv-x="295" unicode="j" d="M196 628q27 0 49.5 -13.5t22.5 -38.5q0 -22 -16.5 -34t-39.5 -12q-26 0 -48 14q-26 17 -26 42q0 20 18.5 31t39.5 11zM21 44q25 0 32 -12t7 -36v-18q0 -22 10.5 -51.5t27.5 -29.5q25 0 41 115.5t16 270.5q0 32 -7 71t-15 80q0 20 19.5 32.5t40.5 12.5q34 0 48 -46 q10 -33 10 -96q0 -17 -1 -42.5t-1 -31.5v-52q0 -105 -7 -166q-12 -102 -43 -161q-39 -73 -108 -73q-57 0 -91 50q-30 44 -30 103q0 45 13.5 62.5t37.5 17.5z"/>
<glyph glyph-name="k" horiz-adv-x="426" unicode="k" d="M134 155q0 -38 4 -64q1 -7 13 -63q-11 -36 -50 -36q-45 0 -60 51q-8 28 -8 87q0 79 8 181q19 242 19 301q9 22 26 32t41 10q23 0 34 -14t11 -37q0 -39 -21 -181q-10 -68 -10 -110q46 50 99 98q79 71 108 71q21 0 34.5 -17.5t13.5 -39.5q0 -7 -1.5 -12.5t-2.5 -11.5 q-9 -10 -26.5 -14t-78.5 -59q-32 -29 -78 -75q30 -37 67 -71q32 -29 76 -63q5 -4 29.5 -16t27.5 -17l4 -17q0 -22 -16.5 -41.5t-38.5 -19.5q-25 0 -82 47q-61 50 -142 140v-39z"/>
<glyph glyph-name="l" horiz-adv-x="190" unicode="l" d="M103 0q-35 0 -51 33q-12 25 -12 64q0 71 6 153t12.5 171.5t6.5 146.5q0 5 -3.5 21t-3.5 23q0 16 22 27t41 11q22 0 35.5 -11.5t13.5 -33.5q0 -21 -4.5 -55t-8.5 -64q-17 -172 -17 -337q0 -17 4 -42q9 -56 9 -68q0 -17 -16 -28t-34 -11z"/>
<glyph glyph-name="m" horiz-adv-x="594" unicode="m" d="M258 442q30 0 52 -55q12 -31 21 -80q39 73 58 100q48 69 85 69q49 0 67 -96q10 -52 10 -133v-26q0 -89 -10 -138q-17 -83 -61 -83q-16 0 -35 10.5t-19 26.5q0 17 14 77t14 93q0 40 -3 60.5t-12 27.5q-53 -30 -98 -216q-19 -78 -44 -78q-30 0 -40 13.5t-10 39.5 q0 14 2.5 38t2.5 27q0 49 -5 84q-8 58 -27 77q-44 -31 -68 -113q-20 -67 -20 -133q0 -14 -15 -23.5t-31 -9.5q-29 0 -42.5 17.5t-13.5 74.5q0 50 12 217q6 84 6 132q0 15 16.5 24t32.5 9q23 0 38 -9t15 -31q0 -19 -4 -47q-9 -63 -9 -79q29 48 52 77q44 56 69 56z"/>
<glyph glyph-name="n" horiz-adv-x="403" unicode="n" d="M283 475q48 0 66 -88q10 -49 10 -127v-40q0 -90 -9 -138q-15 -81 -55 -81q-18 0 -35.5 13t-17.5 30q0 25 9 79t9 82q0 42 -1 56q-4 50 -15 50q-48 -30 -83.5 -120.5t-35.5 -156.5q0 -16 -16.5 -26.5t-33.5 -10.5q-26 0 -35.5 22t-9.5 52q0 49 14 195q7 73 7 117 q0 13 -5.5 37t-5.5 31q0 18 20 27.5t39 9.5q29 0 42 -27q10 -21 10 -61q0 -19 -3 -51t-3 -41q33 68 54 100q45 67 84 67z"/>
<glyph glyph-name="o" horiz-adv-x="391" unicode="o" d="M119 164q0 -42 12.5 -60t34.5 -18q49 0 79 90q23 70 23 132q0 32 -7 52q-11 31 -37 31q-27 0 -42.5 -29t-26.5 -29q-2 0 -3 1q-16 -46 -24.5 -86t-8.5 -84zM240 480q64 0 97 -62q27 -50 27 -120q0 -108 -42 -192q-53 -107 -150 -107q-74 0 -112 53q-34 48 -34 125 q0 74 33 175q42 127 98 127q20 0 33 -16q23 17 50 17z"/>
<glyph glyph-name="p" horiz-adv-x="397" unicode="p" d="M129 152q0 -29 5 -43q9 -26 32 -26q46 0 74 89q22 69 22 130q0 30 -6 53q-10 38 -32 38q-46 0 -74 -100q-21 -76 -21 -141zM255 484q61 0 92 -67q24 -52 24 -120q0 -103 -38 -190q-50 -113 -140 -113q-21 0 -36 3.5t-30 14.5l-1 -49q0 -25 6 -57q14 -76 14 -82 q0 -15 -14.5 -23.5t-30.5 -8.5q-36 0 -54 32q-22 38 -22 129v28.5t1 25.5q0 74 8 168q19 223 19 277q0 15 21 26.5t37 11.5q21 0 34 -14q10 -11 17 -34q19 19 43 30.5t50 11.5z"/>
<glyph glyph-name="q" horiz-adv-x="394" unicode="q" d="M225 394q-42 0 -72 -103q-24 -81 -24 -139q0 -38 8 -55.5t25 -17.5q42 0 72 106q24 85 24 143q0 28 -4 41q-8 25 -29 25zM328 466q19 0 37.5 -14t18.5 -32q0 -21 -14 -73q-18 -69 -20 -78q-11 -62 -17 -128t-6 -133q0 -36 10.5 -103t10.5 -85q0 -14 -18 -22t-36 -8 q-43 0 -60 56q-12 40 -12 112v31.5t1 28.5q-17 -17 -36.5 -27t-40.5 -10q-63 0 -95 61q-25 48 -25 117q0 98 45 199q56 125 140 125q51 0 74 -47q11 15 12 16q13 14 31 14z"/>
<glyph glyph-name="r" horiz-adv-x="338" unicode="r" d="M284 458q25 0 42.5 -12t17.5 -36t-16.5 -44.5t-38.5 -20.5q-5 0 -16 3t-16 3q-64 0 -98 -81q-26 -62 -26 -135q0 -19 7.5 -53t7.5 -46q0 -17 -19 -27.5t-37 -10.5q-44 0 -55 66q-4 24 -4 64v24q0 52 2 173.5t2 129.5q0 18 18.5 27.5t38.5 9.5q26 0 36 -12t10 -34 q0 -9 -2 -32.5t-2 -24.5q34 32 67 49q40 20 81 20z"/>
<glyph glyph-name="s" horiz-adv-x="383" unicode="s" d="M63 122q23 -18 52 -32t70 -14q30 0 47 5.5t17 15.5q0 8 -111.5 61t-111.5 118q0 74 97 138q90 59 168 59q39 0 57 -26.5t18 -67.5q0 -31 -13 -64q-17 -42 -43 -42q-16 0 -30.5 12.5t-14.5 28.5q0 4 13 33q6 13 6 20q0 16 -18 16q-30 0 -82 -34.5t-52 -62.5q0 -20 108 -69 t108 -108q0 -58 -58 -88q-47 -24 -111 -24q-50 0 -95 16q-62 22 -62 63q0 14 13 30t28 16z"/>
<glyph glyph-name="t" horiz-adv-x="294" unicode="t" d="M10 417q0 14 4.5 26.5t15.5 17.5q11 -3 26 -4.5t33 -1.5l20 1q0 26 -1 43q-4 66 -4 72q0 15 15.5 23t32.5 8q32 0 44 -17.5t12 -46.5q0 -17 -1 -28q-4 -45 -4 -47q17 2 34.5 4t31.5 2q32 0 32 -32q0 -16 -4 -32t-11 -33q-6 -2 -16 -2q-16 1 -25 1l-48 -3q0 -34 -2 -72 q-5 -96 -5 -119q0 -43 3.5 -76.5t12.5 -68.5q-4 -16 -16.5 -24t-29.5 -8q-37 0 -53.5 36t-16.5 124q0 41 2 75q7 117 7 125q-43 0 -60 7q-29 12 -29 50z"/>
<glyph glyph-name="u" horiz-adv-x="415" unicode="u" d="M131 8q-55 0 -81 56q-20 43 -20 104q0 128 26 218q23 80 62 80q19 0 36 -12.5t17 -31.5q0 -8 -16 -65.5t-18 -66.5q-7 -39 -9.5 -64t-2.5 -59q0 -23 2.5 -34t14.5 -16q53 13 97 117q35 114 70 229q6 6 14.5 8.5t20.5 2.5q20 0 37 -11.5t17 -31.5q0 -9 -30 -166 q-14 -73 -14 -120q0 -20 8 -46q18 -60 18 -66q0 -17 -15.5 -25t-34.5 -8q-40 0 -58 38q-11 23 -16 74q-26 -45 -50 -69q-35 -35 -75 -35z"/>
<glyph glyph-name="v" horiz-adv-x="366" unicode="v" d="M316 458q22 0 40 -14t18 -36q0 -7 -5 -17q-1 -2 -11 -17q-39 -68 -76 -166.5t-47 -169.5q-3 -22 -19 -30.5t-39 -8.5q-16 0 -25.5 2.5t-20 11t-42.5 108.5q-28 88 -55.5 190t-27.5 116q0 21 15 30.5t37 9.5q14 0 23.5 -2.5t19.5 -9.5q17 -11 17 -31q0 -48 18 -128 q14 -63 35 -126q29 98 56 164q51 124 89 124z"/>
<glyph glyph-name="w" horiz-adv-x="539" unicode="w" d="M222 426l21 3q62 0 82 -86q13 -72 27 -143q20 92 45 155q44 109 95 109q21 0 37.5 -12t16.5 -31q0 -6 -9 -20t-11 -18q-32 -49 -72 -167.5t-40 -171.5q0 -8 -5 -15.5t-12 -13.5q-17 -14 -39 -14q-28 0 -56.5 62.5t-59.5 186.5q-32 -69 -44 -103q-22 -62 -22 -109 q0 -15 -18.5 -24t-35.5 -9q-49 0 -83 183q-26 141 -26 231q0 52 43 52q41 0 55 -18q11 -14 11 -46q-1 -22 -1 -34q0 -39 3.5 -76t11.5 -69q37 89 58 140.5t28 57.5z"/>
<glyph glyph-name="x" horiz-adv-x="354" unicode="x" d="M7 439q0 19 17 29.5t37 10.5q29 0 56 -57q21 -48 42 -95q46 74 79.5 107.5t58.5 33.5q19 0 34.5 -10.5t15.5 -28.5q0 -11 -8 -21q-12 -11 -17 -16q-21 -22 -68 -97q-24 -38 -41 -58q51 -77 66 -95q20 -24 52 -49q12 -9 12 -23q0 -19 -17.5 -38.5t-37.5 -19.5 q-34 0 -76 55q-7 9 -55 86q-16 -31 -29 -62q-20 -46 -20 -63q0 -7 -0.5 -17.5t-11 -18t-27.5 -7.5q-24 0 -40.5 14.5t-16.5 39.5q0 34 35 104q16 32 55 100q-34 59 -55 95q-40 70 -40 101z"/>
<glyph glyph-name="y" horiz-adv-x="375" unicode="y" d="M5 431q0 25 16 37t39 12q15 0 28.5 -6.5t21.5 -20.5q2 -5 3.5 -15t1.5 -19q0 -37 11.5 -81.5t48.5 -136.5q24 76 50 153q46 117 85 117q19 0 40.5 -15t21.5 -35q-2 0 -48 -111q-54 -132 -89 -240q-48 -151 -48 -229q0 -18 1 -26l-9 -18q-11 -4 -21 -7q-27 0 -49.5 22 t-22.5 53q0 36 14 91q5 19 27 90q-33 72 -73 193q-49 144 -49 192z"/>
<glyph glyph-name="z" horiz-adv-x="391" unicode="z" d="M203 112h20.5t22.5 1q46 0 69 -9q33 -13 33 -47q0 -22 -8.5 -34t-20.5 -12q-23 0 -42 2q-67 7 -73 7q-28 0 -83 -8t-81 -8q-18 0 -29 12t-11 29q0 41 101 167q49 62 134 156h-16q-19 0 -47 -4q-63 -9 -77 -9q-16 0 -24.5 14.5t-8.5 31.5q0 25 35 39q43 17 136 17 q16 0 29.5 -0.5t25.5 -0.5q48 0 64 -7q29 -12 29 -53q0 -15 -6 -24t-15 -17t-13 -12q-56 -48 -107 -108q-59 -69 -88 -124z"/>
<glyph glyph-name="braceleft" horiz-adv-x="416" unicode="{" d="M231 304q0 -23 -5 -40.5t-17 -34.5q5 -6 8 -14l6 -15q7 -15 9 -32.5t2 -40.5v-15.5t-1 -19.5v-21q0 -91 15 -128q10 -22 33.5 -34t61.5 -12q16 -3 31.5 -18t15.5 -34q0 -13 -11 -25.5t-39 -17.5q-66 0 -110 26.5t-65 76.5q-14 32 -20 77.5t-6 104.5v59q0 23 -11 28 q-12 5 -81 5q-38 14 -38 46q0 15 10 29.5t25 19.5l54 -1q26 0 34 14q5 10 8 23q3 14 3 35v15.5t-1 15.5q0 2 -0.5 4.5t-0.5 4.5v3q-3 30 -4.5 49.5t-1.5 20.5q0 101 49 148t157 47h3q6 0 14 -3.5t15.5 -10.5t13 -16t5.5 -18q0 -14 -11.5 -25.5t-40.5 -19.5q-74 0 -95 -31 q-9 -17 -14.5 -40.5t-5.5 -56.5q0 -18 3 -63q3 -42 3 -65z"/>
<glyph glyph-name="bar" horiz-adv-x="171" unicode="|" d="M35 68v63q0 76 1 150.5t4 145.5q5 100 13.5 153.5t19.5 62.5q13 8 25 8q5 0 15.5 -3t24.5 -20q4 -6 4 -33q0 -14 -1 -33q-1 -4 -1 -8v-8t-0.5 -9t-0.5 -10l-4 -76t-4 -74q-6 -80 -6 -94v-27q0 -7 -0.5 -14.5t-0.5 -14.5q0 -20 0.5 -40t1.5 -43v-7q1 -29 2.5 -65t3.5 -83 q2 -54 3.5 -94t2.5 -60l-21 -25q-14 -10 -28 -10q-3 0 -13.5 1.5t-20.5 28.5z"/>
<glyph glyph-name="braceright" horiz-adv-x="412" unicode="}" d="M303 180q-21 0 -28 -11q-3 -8 -5 -21t-2 -30v-28q1 -11 1 -19v-12q0 -117 -29 -169q-47 -88 -174 -88q-11 0 -24 15.5t-13 34.5q0 14 8.5 26t28.5 19q74 0 93 50q8 20 12 53t4 80q0 3 -0.5 5.5t-0.5 4.5v48q0 29 5.5 51t19.5 39q-17 23 -21.5 52t-4.5 68q0 9 1 30.5 t3 48.5v3q0 1 0.5 2.5t0.5 3.5q1 8 1 14v12q0 51 -27.5 74.5t-87.5 23.5q-14 6 -24.5 19t-10.5 29q0 11 9 23.5t29 21.5q122 0 170 -65q31 -43 31 -140v-50q-1 -18 -1 -29.5v-20.5q0 -49 11 -61q12 -13 79 -13q17 0 32 -15.5t15 -33.5q0 -14 -9.5 -27t-32.5 -19z"/>
<glyph glyph-name="asciitilde" horiz-adv-x="499" unicode="~" d="M326 527q17 0 27.5 6t18.5 20q17 23 17 65q0 37 38 37q39 0 39 -37q0 -66 -35 -114q-20 -26 -48.5 -39.5t-60.5 -13.5q-76 0 -108 79q-14 44 -43 44q-20 0 -31.5 -7.5t-15.5 -18.5q-1 -2 -2 -4.5t-1 -3.5h1l-2 -6q-10 -44 -18 -62t-31 -18q-39 0 -39 37q0 64 34 110 q42 51 108 51q40 0 68 -21.5t42 -59.5q8 -20 19 -32t23 -12z"/>
<glyph glyph-name="exclamdown" horiz-adv-x="254" unicode="¡" d="M111 349q-25 0 -45.5 13t-20.5 37q0 32 28.5 52t62.5 20q28 0 46 -13.5t18 -41.5q0 -31 -28 -49t-61 -18zM155 -182q0 -16 -15 -23t-33 -7q-24 0 -44.5 13t-20.5 36q0 17 6.5 43t15.5 58q12 69 18.5 125.5t6.5 113.5q0 21 -11.5 56.5t-11.5 41.5q0 13 19.5 23t35.5 10 q36 0 51 -36q11 -26 11 -68q0 -64 -14 -192t-14 -194z"/>
<glyph glyph-name="cent" horiz-adv-x="375" unicode="¢" d="M165 458q-25 -39 -39 -93t-14 -104q0 -29 9 -47t35 -26q0 55 2 100q7 158 7 170zM223 22l-8 -13q-15 -5 -21 -5q-23 0 -31.5 20t-8.5 52v17.5t1 16.5q-64 0 -100 49q-32 43 -32 111q0 86 34 167q40 96 108 125q0 13 -0.5 25t-4.5 49l10 22q14 8 25 8q20 0 27.5 -14.5 t7.5 -38.5q0 -8 -1 -23t-1 -21q39 -7 71 -27q40 -26 40 -61q0 -17 -10.5 -30.5t-27.5 -13.5q-16 0 -35 24.5t-40 28.5q-4 -40 -5.5 -76.5t-1.5 -95.5v-103v-6q26 19 37 48q16 43 22 52l20 6q22 0 36 -13t14 -35q0 -39 -44.5 -86.5t-85.5 -61.5v-36q0 -16 1 -31t4 -30z"/>
<glyph glyph-name="sterling" horiz-adv-x="582" unicode="£" d="M364 353q61 0 82 -5q52 -13 52 -54q0 -21 -14.5 -39.5t-35.5 -18.5q-14 0 -54 11t-62 11q-50 0 -100 -6q-15 -68 -48 -145q24 8 46.5 13.5t42.5 5.5q25 0 58 -8q78 -19 97 -19q15 0 27 6q17 9 24 10l23 -8q8 -6 16 -22t8 -27q0 -33 -27 -50q-23 -14 -58 -14q-28 0 -65 8 q-87 19 -110 19q-28 0 -79.5 -15.5t-70.5 -15.5q-15 0 -34.5 18.5t-19.5 33.5q0 7 17 59q22 67 45 135q-15 -3 -36.5 -12t-30.5 -11q-14 4 -24 18t-10 29q0 34 47 52q20 8 76 18q22 109 37 154q30 89 75 135q57 58 143 58q48 0 87 -19q50 -24 50 -67q0 -22 -13 -39.5 t-34 -17.5q-7 0 -50 31q-22 16 -44 16q-64 0 -103 -89q-19 -44 -40 -145q56 6 110 6z"/>
<glyph glyph-name="currency" horiz-adv-x="494" unicode="¤" d="M448 586q37 0 37 -38q0 -16 -54 -68q-9 -9 -15.5 -16t-14.5 -15q17 -24 24.5 -52.5t7.5 -60.5q0 -34 -5 -62t-20 -57q5 -5 17 -19.5t32 -36.5q23 -24 23 -41q0 -35 -38 -35q-7 0 -22 11t-41 33l-16 17l-10 10q-47 -36 -107 -36t-104 32q-2 -2 -5.5 -4.5t-7.5 -5.5 q-3 -2 -7.5 -4.5t-9.5 -7.5q-49 -46 -65 -46h-1q-36 1 -36 41q2 13 52 63q2 1 3.5 2.5l3.5 3.5l18 18q-14 27 -22.5 60.5t-8.5 68.5q0 61 35 113q-5 4 -8.5 7.5l-7.5 7.5l-17 18q-44 44 -44 64q0 36 41 36q13 -2 66 -53q4 -4 9 -10t16 -17q22 14 48 21.5t52 7.5 q62 0 102 -30q9 10 18.5 19t19.5 18q23 20 38.5 31.5t23.5 11.5zM356 342q0 44 -33 82q-17 17 -35.5 26t-41.5 9q-46 0 -79 -35q-33 -39 -33 -85q0 -56 31 -98q17 -20 37 -31.5t44 -11.5q23 0 44 12.5t35 32.5q17 20 24 46t7 53z"/>
<glyph glyph-name="yen" horiz-adv-x="499" unicode="¥" d="M173 309q-11 0 -22 -0.5t-23 -0.5q-41 0 -60 9q-28 13 -28 48q0 22 9.5 29.5t28.5 7.5q9 0 29 -3t29 -3h9q-19 52 -37 104q-29 77 -47 103q-7 10 -11 18t-4 12q0 20 18.5 33.5t39.5 13.5q61 0 112 -172q26 -98 33 -122q43 102 86 205q44 83 79 83q21 0 41.5 -14t20.5 -35 q0 -6 -6.5 -18t-13.5 -21q-28 -35 -55 -88q-12 -24 -45 -95l55 1q17 0 34 -6q8 -10 8 -23q0 -38 -10 -50.5t-33 -12.5q-5 0 -19 1t-23 1l-52 -1l-22 -57l76 3q19 0 37 -8q11 -13 11 -25q0 -27 -11 -48l-16 -9h-26q-12 0 -37 -1t-38 -1l-1 -71q0 -14 4.5 -29t9.5 -29 q-16 -42 -63 -42q-32 0 -44.5 25.5t-12.5 66.5q0 22 1 40t2 35l-39 -2q-35 0 -53 11q-23 14 -23 46q0 24 7.5 32.5t23.5 8.5q4 0 34 -5q12 -2 23 -2l27 1z"/>
<glyph glyph-name="brokenbar" horiz-adv-x="235" unicode="¦" d="M60 25q-1 30 -1.5 51t-0.5 31q0 20 1 40v18q0 65 7 112.5t18 57.5q17 9 33 9q3 0 14 -1t29 -15q2 -8 2.5 -27t0.5 -48q0 -2 -0.5 -5t-0.5 -5q0 -5 0.5 -10t-0.5 -10v-57t-1 -56l-2 -65l2 -31q-17 -5 -28.5 -8t-19.5 -3h-6q-6 0 -12 1.5t-12 3.5q-2 1 -4.5 1.5t-4.5 1.5z M62 418v61.5t1 60.5q2 77 10 127.5t20 60.5q16 7 31 7q4 0 15.5 -1t28.5 -15q2 -8 2.5 -20.5t0.5 -20.5q0 -15 -1 -34q0 -2 -0.5 -5t-0.5 -5q-1 -5 -0.5 -10t-0.5 -10q-1 -28 -1.5 -57t-1.5 -56l-4 -65l1 -31q-17 -5 -28.5 -7.5t-19.5 -2.5h-5q-6 0 -12.5 2t-12.5 4 q-2 1 -4.5 1.5t-4.5 1.5z"/>
<glyph glyph-name="section" horiz-adv-x="518" unicode="§" d="M231 270q24 0 37 3q15 2 22 6q4 2 13 12.5t13.5 16t4.5 7.5t-5 7q-2 2 -5.5 3.5t-8.5 4.5q-7 4 -16 10q-13 7 -31 14q-11 7 -26 13q-1 -1 -3.5 -2.5t-3.5 -1.5q-9 -7 -17 -11q-10 -8 -19 -16q-4 -3 -7 -6l-9 -9q-10 -11 -14 -20q9 -5 13 -7.5t6.5 -5t5.5 -4.5t9 -5 q10 -2 20 -4.5t21 -4.5zM91 138q25 -16 57 -28q3 -1 5 -2q22 -8 50 -12q4 0 7 -0.5t7 -0.5h22h24q10 1 16 2t7 1q4 1 7.5 1.5t4.5 0.5q17 6 16 12t-7 8q-5 3 -13 7q-20 9 -60 24q-23 9 -54 20q-17 6 -32 13q-6 2 -11 5q-78 36 -90 78q-2 7 -2 15q0 35 29 67q2 2 3 4 q15 14 35 29q9 6 19 12l1 1q-5 3 -10 5q-30 16 -47 33l-8 8q-15 19 -16 39v3q0 56 76 106q7 5 15 9q13 8 28 16q19 9 37 17q8 4 16 7q5 2 11 4q3 1 5 2q24 8 46 14q26 6 46.5 8t32.5 3h10q10 -1 13 -1q5 0 12 -1t19 -6q7 -3 12 -6q9 -7 13 -11l4 -5q4 -5 8 -13q2 -4 4.5 -10 t4 -15.5t1.5 -12.5v-7v-6l-2 -14q-1 -4 -2 -9q-3 -14 -10 -28l-2 -4q-4 -7 -8 -13q-3 -5 -7 -9l-6 -6q-7 -6 -9 -7t-3 -1q-4 -2 -7 -2.5t-4.5 -1t-3.5 -0.5h-4q-9 0 -17 2q-4 1 -8 2.5t-8 4.5q-2 1 -5 3q-1 1 -6 5t-9 11q-1 1 -1 3q-1 4 -1 8q0 3 8 17q1 2 2 3.5t2 4.5 q2 3 5 8q3 6 4 9q2 5 2 8v3q-1 4 -4 7q-5 4 -14 5h-4h-6l-6 -1q-7 -1 -15 -2.5t-16 -4.5q-3 -1 -5 -2q-6 -2 -13 -5l-6 -2q-5 -3 -11 -5l-21 -11q-2 -1 -3 -1q-19 -10 -32 -19q-3 -3 -6 -5q-11 -9 -17 -17q-5 -8 -5 -17q0 -2 2 -4q3 -4 10 -9q5 -3 11 -7q6 -3 13 -6 q10 -5 24 -11q6 -2 13 -5q3 1 53 -19q117 -53 127.5 -78.5t10.5 -35.5q0 -4 -2.5 -9.5t-4.5 -9.5q-1 -2 -2 -5q-7 -13 -20 -25q-7 -6 -15 -11q-6 -4 -12 -7q-3 -1 -7 -3l-10 -4l-6 -2q-4 -2 -9 -4q-13 -4 -27 -7q-7 -1 -10 -2l-10 -2q34 -12 59 -25q7 -4 13 -8q7 -3 12 -7 q31 -20 40 -42q4 -9 4 -19q0 -6 -0.5 -10.5t-2.5 -11t-5 -11.5q-3 -6 -8 -13q-7 -7 -15 -14q-5 -4 -12 -9q-5 -2 -9 -5q-2 -1 -3 -2q-8 -4 -17 -7q-6 -2 -12 -5q-1 0 -17.5 -5.5t-52.5 -9.5l-11 -1q-7 0 -15 -1h-26h-16q-53 2 -100 16q-45 12 -55 22t-12.5 13t-4.5 9l-2 3 q0 1 -0.5 4t-0.5 10q1 5 3 8.5t2 4.5q3 5 5 6l6 6l1 2q16 14 33 14z"/>
<glyph glyph-name="dieresis" horiz-adv-x="302" unicode="¨" d="M230 603q19 0 33 -11.5t14 -30.5q0 -22 -18.5 -35t-39.5 -13q-20 0 -33 9.5t-13 31.5q0 23 17 36t40 13zM82 603q20 0 33.5 -11.5t13.5 -30.5q0 -20 -17.5 -34t-39.5 -14q-20 0 -33.5 9.5t-13.5 31.5q0 23 18 36t39 13z"/>
<glyph glyph-name="copyright" horiz-adv-x="686" unicode="©" d="M39 292q0 71 22.5 132.5t64.5 112.5q48 54 107.5 83t128.5 29q66 0 120.5 -23.5t93.5 -63.5q38 -42 57.5 -96.5t19.5 -121.5q0 -75 -23.5 -135t-71.5 -110q-94 -97 -246 -97q-125 0 -201 83q-72 82 -72 207zM586 344q0 108 -59 173q-29 31 -71.5 48t-95.5 17 q-110 0 -183 -90q-70 -87 -70 -200q0 -99 54 -163q26 -28 64 -43.5t86 -15.5q117 0 197 77q78 78 78 197zM493 256q0 -24 -15 -48.5t-43 -48.5q-31 -23 -59.5 -36t-52.5 -13q-61 0 -95 36.5t-34 96.5q0 34 12 82t29 96q26 57 53 90t55 33q39 0 71 -32q35 -33 35 -69 q0 -20 -12 -31t-32 -11q-8 0 -16 7.5t-13 15.5q-8 28 -20 34q-15 -11 -30 -35t-26 -56q-8 -26 -15 -57.5t-7 -53.5q0 -26 11 -48t36 -22q44 0 78 61q33 59 49 59q17 0 29 -15t12 -35z"/>
<glyph glyph-name="ordfeminine" horiz-adv-x="403" unicode="ª" d="M143 395q0 -19 23 -19q20 0 45 14t31 32q2 8 2 16v12v17q-32 0 -64 -20q-37 -22 -37 -52zM160 308q-37 0 -61 20q-29 22 -29 57q0 61 59 104q47 35 114 47l1 18q0 20 -2 28q-6 15 -20 15q-19 0 -35 -19q-34 -45 -45 -45q-12 0 -22.5 9t-10.5 22q0 33 42.5 66.5t77.5 33.5 q53 0 75 -48q17 -37 17 -105q0 -30 -1.5 -53.5t-3.5 -55.5q0 -12 4.5 -28.5t8.5 -33.5q0 -14 -16.5 -27t-31.5 -13t-24.5 11t-14.5 26q-36 -29 -82 -29z"/>
<glyph glyph-name="guillemotleft" horiz-adv-x="367" unicode="«" d="M345 126q0 -25 -14 -41.5t-39 -16.5q-12 0 -23 6t-11 19q0 5 2 13q2 10 2 14q0 28 -26 62q-8 8 -15 16t-15 17t-17.5 18.5t-16.5 18.5q0 11 11.5 24.5t32.5 30.5q38 29 38 62q-1 1 -1 3q-1 2 -1 3.5t-1 3.5q-1 6 -2 12.5t-1 10.5q0 16 14 21t23 5q26 0 41 -19.5t15 -45.5 q0 -32 -17.5 -60.5t-45.5 -50.5q11 -12 22.5 -25t19.5 -26q11 -19 18 -38.5t7 -36.5zM191 131q0 -25 -13.5 -41.5t-38.5 -16.5q-13 0 -24 6t-11 19l3 18l2 7q0 28 -26 62q-2 2 -2.5 3t-2.5 3q-14 15 -30 31.5t-30 33.5q0 22 45 56q38 29 38 61q0 2 -3 11q-2 6 -3 12.5 t-1 10.5q0 16 14 21t23 5q26 0 40.5 -20t14.5 -46q0 -32 -17.5 -60.5t-44.5 -50.5q25 -26 42 -51q11 -19 18 -38t7 -36z"/>
<glyph glyph-name="logicalnot" horiz-adv-x="484" unicode="¬" d="M52 275q-20 5 -31 13t-16 17t-5.5 18t-0.5 15q14 25 33.5 33t39.5 8q18 0 36 -3q12 -2 25 -3t24 1h37q39 0 123 -3q82 -3 124 -3q9 0 14.5 -1.5t16.5 -9.5q7 -13 8 -87q0 -9 0.5 -17.5t0.5 -16.5q1 -20 1 -40v-32q0 -35 -37 -35q-29 0 -42.5 18.5t-13.5 71.5v21 q0 9 -1.5 14.5t-4.5 13.5q-8 2 -18.5 4t-19.5 2h-88z"/>
<glyph glyph-name="uni00AD" horiz-adv-x="315" unicode="­" d="M146 300q26 0 47 -2t33 -4q26 -8 40.5 -23t14.5 -36q0 -18 -9.5 -32t-26.5 -14q-11 0 -42 6q-31 7 -49 7q-12 0 -30 -3q-21 -4 -34 -5.5t-14 -1.5q-8 0 -15 5t-12 13t-7.5 17.5t-2.5 18.5q0 34 46 47q14 3 29 5t32 2z"/>
<glyph glyph-name="registered" horiz-adv-x="738" unicode="®" d="M76 300q0 71 22.5 132.5t64.5 112.5q48 54 107.5 83t128.5 29q66 0 120.5 -23.5t93.5 -63.5q38 -42 57.5 -96.5t19.5 -121.5q0 -75 -23.5 -135t-71.5 -110q-94 -97 -246 -97q-125 0 -201 83q-72 82 -72 207zM623 352q0 108 -59 173q-29 31 -71.5 48t-95.5 17 q-110 0 -183 -90q-70 -87 -70 -200q0 -99 54 -163q26 -28 64 -43.5t86 -15.5q117 0 197 77q78 78 78 197zM254 492q0 17 10.5 25.5t26.5 9.5q12 13 27 13q16 0 30 -12q29 0 52.5 -5t45.5 -17q59 -30 59 -82q0 -21 -11 -39t-31 -35q-30 -24 -71 -38q5 -7 8.5 -11.5t8.5 -11.5 q8 -11 16.5 -23.5t17.5 -23.5q33 -42 71 -64q0 -2 0.5 -3.5t0.5 -2.5l1 -1q0 -16 -13.5 -29t-28.5 -13q-28 0 -65 38q-33 34 -77 102q0 -8 -0.5 -15t-0.5 -15q0 -42 10 -88q-8 -23 -36 -23q-23 0 -34 19q-13 20 -13 70v24q0 60 4 112.5t13 107.5q-8 4 -14 10q-7 7 -7 21z M441 428q0 10 -14.5 16.5t-40.5 11.5q-23 5 -37 5q-1 -5 -1.5 -13t-1.5 -15q0 -2 -0.5 -3t-0.5 -3q-2 -10 -4 -24t-4 -38q15 5 30.5 10.5t30.5 11.5q43 20 43 41z"/>
<glyph glyph-name="macron" horiz-adv-x="393" unicode="¯" d="M213 605q32 1 54 -1q21 -2 35 -4q71 -10 71 -55q0 -17 -10 -30.5t-33 -13.5q-2 1 -4 1q-5 0 -8 -0.5t-6 1.5q-25 5 -56 6t-63 1h-51q-2 0 -3 -0.5t-3 -0.5h-9q-5 -1 -13 -1.5t-14 -1.5h-4l-26 -3q-26 0 -38.5 14t-12.5 31q0 34 40 47q31 10 99 10h55z"/>
<glyph glyph-name="degree" horiz-adv-x="275" unicode="°" d="M141 649q21 0 41 -9q3 -2 8.5 -5.5t7.5 -4.5q5 -3 8 -5t7 -4l1 -1q14 -8 18 -13q21 -19 21 -54q0 -38 -27 -66q-33 -36 -90 -36q-55 0 -85 30q-14 15 -19.5 30t-5.5 31q0 36 23 67q37 40 92 40zM171 555q0 5 -2 10.5t-4 8.5q-6 6 -25 6q-8 0 -14.5 -3t-11.5 -12 q-6 -7 -8 -14t-2 -12q0 -10 2 -14q11 -8 25 -8q22 0 30 13q4 6 7 11.5t3 13.5z"/>
<glyph glyph-name="plusminus" horiz-adv-x="479" unicode="±" d="M282 166q0 -10 -14 -16t-26 -6q-36 0 -48 30q-6 16 -6 55q0 46 4 99q-16 0 -56 -3q-41 -5 -80 -11q-16 0 -24 11.5t-8 25.5q0 24 33 37q40 16 128 16h14q2 29 5 59q5 64 5 106q0 11 13 16t25 5q19 0 36.5 -10t17.5 -26q0 -19 -4 -40.5t-8 -41.5q-5 -34 -8 -68 q69 -1 105 -8q69 -13 69 -49q0 -14 -5 -25t-18 -11q-9 0 -21 3q-36 8 -82 11q-26 2 -54 2q-3 -62 -3 -123q0 -6 3 -14q7 -21 7 -24zM231 104h32q83 0 123 -8q69 -13 69 -49q0 -14 -5 -25t-18 -11q-9 0 -21 3q-36 8 -81.5 11t-93.5 3h-41.5t-58.5 -3q-41 -5 -80 -11 q-16 0 -24 11.5t-8 25.5q0 24 33 37q40 16 128 16h46z"/>
<glyph glyph-name="uni00B2" horiz-adv-x="370" unicode="²" d="M242 427q48 0 65 -4q48 -12 48 -44q0 -17 -8 -28.5t-25 -11.5t-50 3q-32 3 -49 3q-32 0 -75 -6q-98 -15 -102 -15q-14 0 -24 9t-10 23q0 6 17.5 27.5t47.5 53.5q12 14 24.5 27.5t23.5 25.5q26 28 43.5 47t25.5 29q27 33 45 58.5t18 36.5q0 4 -10 4q-30 0 -65 -25 q-20 -17 -40 -33t-40 -30q-20 0 -36 11t-16 30q0 40 85 86q78 41 127 41q37 0 60.5 -18.5t23.5 -53.5q0 -17 -10.5 -40.5t-28.5 -50.5q-28 -46 -76 -98q-17 -19 -29 -31t-30 -29q30 3 70 3z"/>
<glyph glyph-name="uni00B3" horiz-adv-x="360" unicode="³" d="M326 455q0 -61 -53 -98q-47 -31 -112 -31q-48 0 -91 17q-62 26 -62 69q0 15 13.5 24t31.5 9q20 0 35 -17q11 -14 28 -21.5t39 -7.5q34 0 60 14q16 8 23.5 18t7.5 26q0 19 -17.5 26.5t-38.5 7.5q-14 0 -31 -4t-32 -9v1q-5 -3 -8 -3q-3 -1 -7 -1q-16 7 -22.5 20t-6.5 30 q0 12 5 23q79 28 128 50q41 21 44 49q-1 2 -1 3.5t-1 3.5t-2 5q-10 4 -15 4q-34 0 -76 -25h2l-2 -2h-1l-2 -1q-1 0 -1 -1q-6 -5 -13 -10.5t-13 -10.5q-12 -9 -23.5 -17t-22.5 -19q-18 0 -32 12.5t-14 29.5q0 19 23.5 41t61.5 42q37 20 67 28.5t54 8.5q19 0 37 -6.5t32 -18 t22.5 -27.5t8.5 -35t-9.5 -37t-25.5 -32q-9 -8 -21 -16.5t-27 -18.5q27 -12 43.5 -36.5t16.5 -56.5z"/>
<glyph glyph-name="acute" horiz-adv-x="235" unicode="´" d="M168 658q43 0 43 -45q0 -15 -68 -86q-68 -67 -89 -67q-41 0 -41 41q0 21 66 89q71 68 89 68z"/>
<glyph glyph-name="mu" horiz-adv-x="500" unicode="µ" d="M186 4q-13 0 -25 3v-41q0 -17 4 -42q8 -126 8 -138q0 -17 -16 -28t-34 -11q-35 0 -51 33q-11 23 -11 118v16q0 71 6 153t12.5 171.5t6.5 146.5q0 5 -3.5 21t-3.5 23q0 16 22 27t41 11q13 0 23 -5h1q19 0 36 -12.5t17 -31.5q0 -8 -16 -65.5t-18 -66.5q-7 -39 -8.5 -55 t-1.5 -23q0 -20 5 -45q0 -23 2.5 -34t14.5 -16q53 13 97 117q35 114 70 229q6 6 14.5 8.5t20.5 2.5q20 0 37 -11.5t17 -31.5q0 -9 -30 -166q-14 -73 -14 -120q0 -20 8 -46q18 -60 18 -66q0 -17 -15.5 -25t-34.5 -8q-40 0 -58 38q-11 23 -16 74q-26 -45 -50 -69 q-35 -35 -75 -35z"/>
<glyph glyph-name="paragraph" horiz-adv-x="612" unicode="¶" d="M243 404q-42 0 -72 -103q-24 -81 -24 -139q0 -38 8 -55.5t25 -17.5q42 0 72 106q24 85 24 143q0 28 -4 41q-8 25 -29 25zM562 357q-18 -69 -20 -78q-11 -62 -17 -128t-6 -133q0 -36 10.5 -103t10.5 -85q0 -14 -18 -22t-36 -8q-43 0 -60 56q-12 40 -12 112v32q0 14 1 28 q-1 -1 -2 -1q-3 0 -3 14q0 48 34 262q25 90 36 127q-31 1 -63 1h-15v-1q0 -21 -14 -73q-18 -69 -20 -78q-11 -62 -17 -128t-6 -133q0 -36 10.5 -103t10.5 -85q0 -14 -18 -22t-36 -8q-43 0 -60 56q-12 40 -12 112v32q0 14 1 28q-17 -17 -36.5 -27t-40.5 -10q-63 0 -95 61 q-25 48 -25 117q0 98 45 199q37 74 78.5 102t88.5 40q40 10 112 10q17 0 46 -1q162 -14 162 -91q0 -19 -14 -71z"/>
<glyph glyph-name="periodcentered" horiz-adv-x="241" unicode="·" d="M129 393q26 0 45.5 -13t19.5 -39q0 -30 -28.5 -50t-60.5 -20q-27 0 -46 14t-19 40q0 31 28 49.5t61 18.5z"/>
<glyph glyph-name="cedilla" horiz-adv-x="324" unicode="¸" d="M194 0q-14 -14 -28 -30q-4 -4 -15 -19l27 3q36 0 58 -24t22 -60q0 -50 -39 -83.5t-90 -33.5q-31 0 -53 11t-32 37l6 16l13 7q7 -2 26.5 -9.5t31.5 -7.5q25 0 45 16t20 41l-13 29q-21 11 -34 11q-15 -2 -27 -3l-23 10l-11 20q5 15 19.5 32.5t30.5 38.5q1 -2 11.5 -2h22.5 q14 0 32 1v-1z"/>
<glyph glyph-name="uni00B9" horiz-adv-x="332" unicode="¹" d="M104 699q9 8 17.5 15.5t16.5 15.5q24 18 40 18t31 -14q20 -17 20 -30q0 -29 -3.5 -68.5t-8.5 -82.5q-5 -45 -9 -80.5t-4 -68.5q1 -24 9 -58q-10 -27 -40 -27q-36 0 -47 32q-5 14 -5 36q0 10 1 21q3 80 5 119q8 72 13 126q-8 2 -12.5 4t-9.5 6q-16 11 -16 30z"/>
<glyph glyph-name="ordmasculine" horiz-adv-x="389" unicode="º" d="M229 727q28 0 48.5 -17.5t31.5 -48.5q9 -22 13.5 -47.5t4.5 -53.5q0 -88 -27 -148q-42 -86 -124 -86q-62 0 -96 59q-24 44 -24 112q0 58 28 144q41 104 95 104q20 0 36 -19q5 1 14 1zM140 496q0 -32 9 -60q10 -31 31 -31q41 0 57 92q4 19 5.5 38t1.5 35q0 29 -5 55 q-9 28 -28 28t-30 -23q-13 -28 -25 -35q-8 -26 -12 -49t-4 -50z"/>
<glyph glyph-name="guillemotright" horiz-adv-x="367" unicode="»" d="M17 126q0 17 7 36.5t18 38.5q8 13 19.5 26t22.5 25q-28 22 -45.5 50.5t-17.5 60.5q0 26 15 45.5t41 19.5q9 0 23 -5t14 -21q0 -4 -1 -10.5t-2 -12.5q-2 -6 -2 -7q-1 -2 -1 -3q0 -33 38 -62q21 -17 32.5 -30.5t11.5 -24.5q-7 -9 -16.5 -18.5t-17.5 -18.5t-15 -17t-15 -16 q-26 -34 -26 -62q0 -4 2 -14q2 -8 2 -13q0 -13 -11 -19t-23 -6q-25 0 -39 16.5t-14 41.5zM171 131q0 17 7 36t18 38q8 13 19 26t23 25q-27 22 -44.5 50.5t-17.5 60.5q0 26 14.5 46t40.5 20q9 0 23 -5t14 -21q0 -4 -1 -10.5t-3 -12.5q-3 -9 -3 -11q0 -32 38 -61 q45 -34 45 -56q-14 -17 -30 -33.5t-30 -31.5q-2 -2 -2.5 -3t-2.5 -3q-26 -34 -26 -62l2 -7l3 -18q0 -13 -11 -19t-24 -6q-25 0 -38.5 16.5t-13.5 41.5z"/>
<glyph glyph-name="onequarter" horiz-adv-x="824" unicode="¼" d="M394 161q0 14 16.5 40t48.5 61q29 32 61.5 64.5t66.5 62.5q36 32 62 49t37 17t27 -16q16 -17 21 -27q-13 -46 -26 -95q-6 -23 -12 -43.5t-12 -44.5h32q15 0 27 -2t21 -4q21 -8 21 -34q0 -23 -16 -36q-9 -8 -31 -8q-8 0 -19 0.5t-19 1.5l-29 -2q-2 -21 -2.5 -34t-0.5 -20 q0 -13 2.5 -24t5.5 -22q1 -1 0 -6t-6 -20q-6 -8 -19 -12.5t-23 -4.5q-30 0 -41 22.5t-11 56.5q0 15 2 29.5t4 28.5q-75 0 -148 -24zM618 313q-27 -23 -50.5 -46.5t-42.5 -50.5q16 2 34 3.5t34 1.5zM130 25q0 20 25.5 79.5t70.5 148.5q46 87 94.5 169.5t93.5 156.5 q23 37 44 68t39 54t31 36t20 13q19 0 33.5 -11.5t17.5 -31.5q0 -9 -39 -64h1q-2 -3 -4 -6.5t-4 -7.5q-9 -12 -15 -24h-1v-1l1 1v0l-1 -1h1q-1 -1 -1 0q-3 -8 -11 -18l-6 -8q-7 -10 -13.5 -20.5t-13.5 -20.5l-14 -22t-12 -21q-14 -21 -24 -37.5t-17 -27.5h1q-1 -2 -2 -3 t-2 -3q-1 -1 -2 -3t-2.5 -3t-2.5 -3h1q-2 -4 -4 -6v1q-11 -18 -21 -38.5t-21 -43.5q-7 -14 -14 -27.5t-15 -27.5q-12 -23 -26.5 -53.5t-29.5 -64.5q-2 -5 -5 -10.5t-6 -11.5q-11 -21 -21 -42.5t-18 -38.5q-10 -19 -17.5 -35t-11.5 -27l-24 -4q-23 0 -38 8.5t-15 31.5z M73 686q9 8 18 15.5t18 16.5q23 20 40 20q16 0 35 -16q20 -17 20 -32q0 -28 -3.5 -67t-8.5 -81q-5 -45 -9 -89t-4 -76q0 -9 0.5 -14.5t1 -11.5t2.5 -13t5 -18q-5 -14 -16.5 -22t-27.5 -8q-35 0 -49 34q-4 11 -4 57q0 28 1.5 62t3.5 72q2 13 5 41.5t8 81.5q-5 2 -9.5 4 t-10.5 6q-8 5 -13 12.5t-5 18.5z"/>
<glyph glyph-name="onehalf" horiz-adv-x="767" unicode="½" d="M623 115q26 0 42.5 -1.5t26.5 -3.5q46 -11 46 -50q0 -17 -8.5 -29.5t-25.5 -12.5q-15 0 -49 3q-35 3 -49 3q-15 0 -34 -1.5t-41 -5.5q-50 -8 -75.5 -12t-27.5 -4q-14 0 -24.5 11t-10.5 25q0 11 64 90q49 56 78 89.5t41 49.5t23 32.5t19.5 31t13.5 26t5 16.5t-9 5 q-26 0 -63 -29h1q-20 -18 -40.5 -35.5t-40.5 -34.5q-22 0 -38 12.5t-16 32.5q0 21 23.5 46.5t62.5 48.5q38 23 70.5 35t55.5 12q38 0 62 -22t24 -57q0 -18 -10.5 -45t-27.5 -56q-17 -28 -37 -55.5t-40 -54.5q-9 -11 -16 -18.5t-13 -14.5t-12.5 -14t-15.5 -17q14 2 31 3t35 1 zM112 25q0 20 25.5 79.5t70.5 148.5q45 87 94 169.5t94 156.5q23 37 44 68t38.5 54t30.5 36t19 13q20 0 35 -11.5t18 -31.5q0 -9 -39 -64q-2 -3 -4.5 -6.5t-4.5 -7.5q-3 -5 -6 -11t-6 -11l-1 -1v-1q-2 -3 -5.5 -8t-7 -9.5t-5.5 -7.5t0 -2q-7 -10 -13.5 -20.5t-13.5 -20.5 q-2 -2 -3 -5t-3 -5q-5 -8 -11 -17.5t-11 -15.5q-12 -19 -21.5 -35t-16.5 -27q-2 -2 -2.5 -4.5t-2.5 -4.5h1q-1 -1 -2 -3t-2.5 -3t-2.5 -3h1q-2 -4 -4 -6v1q-11 -18 -21.5 -38.5t-21.5 -43.5q-6 -14 -13 -27.5t-15 -27.5l-31.5 -63t-35.5 -77q-17 -35 -30.5 -63.5 t-24.5 -48.5q-5 -8 -8.5 -16.5t-6.5 -14.5l-22 -4q-23 0 -38 8.5t-15 31.5zM55 686q10 8 19 16t14 13q27 23 43 23t35 -16q18 -17 18 -32q0 -28 -2.5 -67t-7.5 -81q-5 -45 -9 -89t-4 -76q0 -9 0.5 -14.5t1 -11.5t2.5 -13t5 -18q-5 -14 -16.5 -22t-27.5 -8q-35 0 -49 34 q-4 11 -4 57q0 28 1.5 62t3.5 72q2 12 5 41.5t7 81.5l-1 1q-8 3 -18 9q-8 5 -13 12.5t-5 18.5z"/>
<glyph glyph-name="threequarters" horiz-adv-x="903" unicode="¾" d="M475 161q0 14 16.5 40t48.5 61q29 32 61.5 64.5t66.5 62.5q36 32 62 49t37 17t27 -16q16 -17 21 -27q-13 -46 -26 -95q-6 -23 -12 -43.5t-12 -44.5h32q15 0 27 -2t21 -4q21 -8 21 -34q0 -23 -16 -36q-9 -8 -31 -8q-8 0 -19 0.5t-19 1.5l-29 -2q-2 -21 -2.5 -34t-0.5 -20 q0 -13 2.5 -24t5.5 -22q1 -1 0 -6t-6 -20q-6 -8 -19 -12.5t-23 -4.5q-30 0 -41 22.5t-11 56.5q0 15 2 29.5t4 28.5q-75 0 -148 -24zM359 454q0 -31 -14 -55.5t-40 -43.5q-23 -15 -51.5 -23.5t-60.5 -8.5q-48 0 -94 17q-60 27 -60 71q0 16 13.5 26t32.5 10q23 0 37 -17 q11 -13 26.5 -21t38.5 -8q32 0 57 14q29 14 29 42q0 17 -15.5 23t-35.5 6q-15 0 -37.5 -7t-40.5 -7q-17 6 -24.5 19.5t-7.5 31.5q0 9 7 26q37 14 68 25t58 25q21 10 31 22t12 23q-1 2 -1.5 4t-1.5 4q-2 1 -7 2.5t-6 1.5q-35 0 -72 -22h1q-1 -1 -2.5 -2t-2.5 -2l-3 -1 q-7 -5 -16.5 -12.5t-14.5 -11.5h1q-10 -8 -20.5 -17t-20.5 -17q-20 0 -35 14.5t-15 31.5q0 21 24 43.5t61 42.5q73 37 122 37q20 0 38.5 -7t33 -19t23 -28.5t8.5 -35.5q0 -40 -30 -67q-13 -11 -25 -20t-23 -16q25 -14 40 -38t15 -55zM214 25q0 20 23 78t72 150 q47 90 93 170.5t94 155.5q108 171 133 171q20 0 34 -12.5t18 -33.5q-2 -2 -12.5 -20.5t-34.5 -54.5q-9 -12 -16 -25q1 -1 -2.5 -6t-6.5 -10q-12 -17 -19.5 -28.5t-12.5 -22.5q-7 -10 -14 -22t-14 -21q-13 -19 -24.5 -38t-20.5 -35q3 9 2.5 9.5t-2.5 -3.5t-4.5 -9.5 t-3.5 -8.5q-10 -17 -21 -39t-22 -43q-7 -14 -14 -27.5t-15 -27.5q-2 -2 -3 -5.5t-5 -9.5h1q-12 -26 -27.5 -56.5t-32.5 -68.5q-10 -20 -18 -37t-16 -33q-7 -14 -13 -26.5t-11 -23.5q-1 -3 -4.5 -8t-8.5 -15l-21 -4q-23 0 -37 8.5t-14 31.5zM699 313q-27 -23 -50.5 -46.5 t-42.5 -50.5q16 2 34 3.5t34 1.5z"/>
<glyph glyph-name="questiondown" horiz-adv-x="468" unicode="¿" d="M331 368q-23 0 -42.5 12t-19.5 35q0 32 33 52t67 20q27 0 45.5 -10.5t18.5 -35.5q0 -32 -36 -54q-31 -19 -66 -19zM144 -69q0 -16 12 -25t28 -9q60 0 98 61q25 50 51 100q18 7 31 7q25 0 38 -15t13 -40q0 -78 -84.5 -149t-164.5 -71q-56 0 -95.5 36.5t-39.5 92.5 q0 74 73 145q25 24 135 105q74 54 74 86q0 10 -6 25q-9 23 -10 25q8 15 25.5 23.5t36.5 8.5q25 0 39.5 -17.5t14.5 -43.5q0 -69 -69 -138l-130 -108q-70 -58 -70 -99z"/>
<glyph glyph-name="Agrave" horiz-adv-x="478" unicode="À" d="M101 867q0 31 30 31q6 0 29 -19t52 -48q34 -32 51 -52.5t17 -27.5q0 -30 -28 -30q-16 0 -83 66q-68 66 -68 80zM231 458q-42 -102 -72 -207q62 8 116 8q-6 34 -15 72q-28 120 -29 127zM448 201q0 -42 -34 -42q-8 0 -12 1q12 -34 18 -50q10 -26 23 -49q9 -14 9 -23 q0 -18 -15.5 -29.5t-33.5 -11.5q-51 0 -81 90q-4 11 -20 74l-30 1h-51q-71 0 -88 -18q-22 -23 -22 -110q0 -14 -14.5 -23.5t-28.5 -9.5q-25 0 -41.5 17.5t-16.5 43.5q0 27 42 168.5t84 257.5q50 140 72 162q15 15 42 15q31 0 51 -26q1 -2 20 -97q12 -62 34 -178l20 -104 q34 -5 50 -15q23 -15 23 -44z"/>
<glyph glyph-name="Aacute" horiz-adv-x="478" unicode="Á" d="M311 876q29 0 29 -30q0 -12 -67 -79t-82 -67q-27 0 -27 28q0 17 65 82q66 66 82 66zM231 458q-42 -102 -72 -207q62 8 116 8q-6 34 -15 72q-28 120 -29 127zM448 201q0 -42 -34 -42q-8 0 -12 1q12 -34 18 -50q10 -26 23 -49q9 -14 9 -23q0 -18 -15.5 -29.5t-33.5 -11.5 q-51 0 -81 90q-4 11 -20 74l-30 1h-51q-71 0 -88 -18q-22 -23 -22 -110q0 -14 -14.5 -23.5t-28.5 -9.5q-25 0 -41.5 17.5t-16.5 43.5q0 27 42 168.5t84 257.5q50 140 72 162q15 15 42 15q31 0 51 -26q1 -2 20 -97q12 -62 34 -178l20 -104q34 -5 50 -15q23 -15 23 -44z"/>
<glyph glyph-name="Acircumflex" horiz-adv-x="478" unicode="Â" d="M394 702q0 -31 -28 -31q-4 0 -9 1q-19 15 -36 31t-34 35l-4.5 4.5t-7 8t-12.5 15t-21 24.5q-11 -14 -23 -28t-24 -27v1q-57 -64 -73 -64q-30 0 -30 30q0 13 59 78l74 81h33q5 -7 14 -16t15 -16v1l22 -24t23 -24q62 -65 62 -80zM231 458q-42 -102 -72 -207q62 8 116 8 q-6 34 -15 72q-28 120 -29 127zM448 201q0 -42 -34 -42q-8 0 -12 1q12 -34 18 -50q10 -26 23 -49q9 -14 9 -23q0 -18 -15.5 -29.5t-33.5 -11.5q-51 0 -81 90q-4 11 -20 74l-30 1h-51q-71 0 -88 -18q-22 -23 -22 -110q0 -14 -14.5 -23.5t-28.5 -9.5q-25 0 -41.5 17.5 t-16.5 43.5q0 27 42 168.5t84 257.5q50 140 72 162q15 15 42 15q31 0 51 -26q1 -2 20 -97q12 -62 34 -178l20 -104q34 -5 50 -15q23 -15 23 -44z"/>
<glyph glyph-name="Atilde" horiz-adv-x="478" unicode="Ã" d="M317 762q30 0 52 34q8 17 14 35.5t6 37.5q0 29 30 29q28 0 28 -29q0 -60 -28 -106q-36 -60 -98 -60q-51 0 -99 75q-35 59 -42 59q-24 0 -40 -22q-3 -3 -43 -112q-41 0 -41 30q0 29 6.5 55.5t19.5 48.5q17 27 41.5 42.5t53.5 15.5q45 0 95 -75q39 -58 45 -58zM231 458 q-42 -102 -72 -207q62 8 116 8q-6 34 -15 72q-28 120 -29 127zM448 201q0 -42 -34 -42q-8 0 -12 1q12 -34 18 -50q10 -26 23 -49q9 -14 9 -23q0 -18 -15.5 -29.5t-33.5 -11.5q-51 0 -81 90q-4 11 -20 74l-30 1h-51q-71 0 -88 -18q-22 -23 -22 -110q0 -14 -14.5 -23.5 t-28.5 -9.5q-25 0 -41.5 17.5t-16.5 43.5q0 27 42 168.5t84 257.5q50 140 72 162q15 15 42 15q31 0 51 -26q1 -2 20 -97q12 -62 34 -178l20 -104q34 -5 50 -15q23 -15 23 -44z"/>
<glyph glyph-name="Adieresis" horiz-adv-x="478" unicode="Ä" d="M329 803q19 0 33 -11.5t14 -30.5q0 -22 -18.5 -35t-39.5 -13q-20 0 -33 9.5t-13 31.5q0 23 17 36t40 13zM181 803q20 0 33.5 -11.5t13.5 -30.5q0 -20 -17.5 -34t-39.5 -14q-20 0 -33.5 9.5t-13.5 31.5q0 23 18 36t39 13zM231 458q-42 -102 -72 -207q62 8 116 8 q-6 34 -15 72q-28 120 -29 127zM448 201q0 -42 -34 -42q-8 0 -12 1q12 -34 18 -50q10 -26 23 -49q9 -14 9 -23q0 -18 -15.5 -29.5t-33.5 -11.5q-51 0 -81 90q-4 11 -20 74l-30 1h-51q-71 0 -88 -18q-22 -23 -22 -110q0 -14 -14.5 -23.5t-28.5 -9.5q-25 0 -41.5 17.5 t-16.5 43.5q0 27 42 168.5t84 257.5q50 140 72 162q15 15 42 15q31 0 51 -26q1 -2 20 -97q12 -62 34 -178l20 -104q34 -5 50 -15q23 -15 23 -44z"/>
<glyph glyph-name="Aring" horiz-adv-x="478" unicode="Å" d="M377 828q0 -54 -40 -96q-42 -40 -97 -40q-48 0 -78 30.5t-30 79.5q0 55 38 96q40 40 97 40q23 0 43 -8t35 -23t23.5 -35t8.5 -44zM240 751q32 0 55 24q23 25 23 55q0 23 -14.5 36.5t-37.5 13.5q-32 0 -54 -22t-22 -54q0 -53 50 -53zM231 458q-42 -102 -72 -207 q62 8 116 8q-6 34 -15 72q-28 120 -29 127zM448 201q0 -42 -34 -42q-8 0 -12 1q12 -34 18 -50q10 -26 23 -49q9 -14 9 -23q0 -18 -15.5 -29.5t-33.5 -11.5q-51 0 -81 90q-4 11 -20 74l-30 1h-51q-71 0 -88 -18q-22 -23 -22 -110q0 -14 -14.5 -23.5t-28.5 -9.5 q-25 0 -41.5 17.5t-16.5 43.5q0 27 42 168.5t84 257.5q50 140 72 162q15 15 42 15q31 0 51 -26q1 -2 20 -97q12 -62 34 -178l20 -104q34 -5 50 -15q23 -15 23 -44z"/>
<glyph glyph-name="AE" horiz-adv-x="729" unicode="Æ" d="M346 479q-70 -105 -102 -163t-52 -108q19 3 47 4t54 1h33q0 61 6 133q2 28 14 133zM69 -3q-21 0 -35 12t-14 32q0 47 68 190.5t143 262.5q86 135 128 155q13 6 88.5 11.5t105.5 5.5q68 0 91 -5q58 -13 58 -56q0 -15 -11.5 -32t-25.5 -18q-38 5 -58 6.5t-35 1.5h-53 q-29 -2 -52 -11q-12 -25 -19.5 -96t-7.5 -117q24 0 39 1q60 4 66 4q49 0 75 -8q45 -14 45 -51q0 -39 -34 -51q-26 5 -42 7t-35 2h-27q-20 0 -39.5 -0.5t-40.5 -5.5l-14 -16l-3 -52q0 -21 1.5 -30.5t8.5 -24.5q19 -5 50 -5q24 0 40 1q63 4 66 4q47 0 72 -10q38 -15 38 -55 q0 -17 -10 -33.5t-27 -16.5q-14 0 -39 4q-56 9 -72 9q-32 0 -94 -6t-92 -6q-28 0 -37.5 21.5t-9.5 56.5v33q-27 4 -58 4q-46 0 -65.5 -1.5t-56.5 -7.5q-11 -52 -18 -73q-13 -36 -58 -36z"/>
<glyph glyph-name="Ccedilla" horiz-adv-x="445" unicode="Ç" d="M33 218q0 62 28 164q32 117 79 196q57 95 117 95q55 0 94 -60q35 -54 35 -113q0 -29 -12 -49q-15 -25 -42 -25q-4 0 -16 5t-14 6l-14 22q2 13 3.5 21t1.5 10q0 22 -7 39t-25 24q-50 -19 -89 -147q-32 -106 -32 -182q0 -52 13 -85q19 -49 63 -49q48 0 78 52q26 45 26 97 l13 20q12 5 20 8t15 3q21 0 34 -17t13 -39q0 -71 -42.5 -133.5t-108.5 -80.5q-14 -15 -28 -31q-4 -4 -15 -19l27 3q36 0 58 -24t22 -60q0 -50 -39 -83.5t-90 -33.5q-31 0 -53 11t-32 37l6 16l13 7q7 -2 26.5 -9.5t31.5 -7.5q25 0 45 16t20 41l-13 29q-21 11 -34 11 q-15 -2 -27 -3l-23 10l-11 20q5 15 19.5 32.5t30.5 32.5q-82 12 -123.5 74.5t-41.5 148.5z"/>
<glyph glyph-name="Egrave" horiz-adv-x="452" unicode="È" d="M101 867q0 31 30 31q6 0 29 -19t52 -48q34 -32 51 -52.5t17 -27.5q0 -30 -28 -30q-16 0 -83 66q-68 66 -68 80zM153 158q0 -21 6 -39q6 -6 22.5 -8t41.5 -2q20 0 42.5 1t46.5 3q49 0 74 -8q43 -14 43 -53q0 -11 -5 -24t-13 -21l-16 -7q-19 0 -38 3q-57 9 -65 9 q-37 0 -75 -3q-113 -9 -124 -9q-28 0 -38 34t-10 89q0 31 1.5 58.5t3.5 50.5q-11 16 -17 28t-6 27q0 13 7 21t21 15q0 55 9 118t18 123q-3 5 -8.5 19t-5.5 20q0 43 92 57q45 7 124 7q60 0 86 -6q55 -13 55 -54q0 -13 -12.5 -33t-22.5 -20q-2 0 -5 1q-16 6 -39 7.5t-32 1.5 h-22t-22 1q-28 0 -48.5 -3.5t-35.5 -14.5q-8 -22 -15 -98.5t-7 -109.5q43 4 94 4q58 0 81 -6q49 -13 49 -53q0 -39 -35 -50q-18 5 -37.5 7t-39.5 2t-60 -3t-59 -3q0 -13 -2 -45t-2 -34z"/>
<glyph glyph-name="Eacute" horiz-adv-x="452" unicode="É" d="M313 876q29 0 29 -30q0 -12 -67 -79t-82 -67q-27 0 -27 28q0 17 65 82q66 66 82 66zM153 158q0 -21 6 -39q6 -6 22.5 -8t41.5 -2q20 0 42.5 1t46.5 3q49 0 74 -8q43 -14 43 -53q0 -11 -5 -24t-13 -21l-16 -7q-19 0 -38 3q-57 9 -65 9q-37 0 -75 -3q-113 -9 -124 -9 q-28 0 -38 34t-10 89q0 31 1.5 58.5t3.5 50.5q-11 16 -17 28t-6 27q0 13 7 21t21 15q0 55 9 118t18 123q-3 5 -8.5 19t-5.5 20q0 43 92 57q45 7 124 7q60 0 86 -6q55 -13 55 -54q0 -13 -12.5 -33t-22.5 -20q-2 0 -5 1q-16 6 -39 7.5t-32 1.5h-22t-22 1q-28 0 -48.5 -3.5 t-35.5 -14.5q-8 -22 -15 -98.5t-7 -109.5q43 4 94 4q58 0 81 -6q49 -13 49 -53q0 -39 -35 -50q-18 5 -37.5 7t-39.5 2t-60 -3t-59 -3q0 -13 -2 -45t-2 -34z"/>
<glyph glyph-name="Ecircumflex" horiz-adv-x="452" unicode="Ê" d="M394 730q0 -31 -28 -31q-4 0 -9 1q-19 15 -36 31t-34 35l-4.5 4.5t-7 8t-12.5 15t-21 24.5q-11 -14 -23 -28t-24 -27v1q-57 -64 -73 -64q-30 0 -30 30q0 13 59 78l74 81h33q5 -7 14 -16t15 -16v1l22 -24t23 -24q62 -65 62 -80zM153 158q0 -21 6 -39q6 -6 22.5 -8t41.5 -2 q20 0 42.5 1t46.5 3q49 0 74 -8q43 -14 43 -53q0 -11 -5 -24t-13 -21l-16 -7q-19 0 -38 3q-57 9 -65 9q-37 0 -75 -3q-113 -9 -124 -9q-28 0 -38 34t-10 89q0 31 1.5 58.5t3.5 50.5q-11 16 -17 28t-6 27q0 13 7 21t21 15q0 55 9 118t18 123q-3 5 -8.5 19t-5.5 20q0 43 92 57 q45 7 124 7q60 0 86 -6q55 -13 55 -54q0 -13 -12.5 -33t-22.5 -20q-2 0 -5 1q-16 6 -39 7.5t-32 1.5h-22t-22 1q-28 0 -48.5 -3.5t-35.5 -14.5q-8 -22 -15 -98.5t-7 -109.5q43 4 94 4q58 0 81 -6q49 -13 49 -53q0 -39 -35 -50q-18 5 -37.5 7t-39.5 2t-60 -3t-59 -3 q0 -13 -2 -45t-2 -34z"/>
<glyph glyph-name="Edieresis" horiz-adv-x="452" unicode="Ë" d="M329 803q19 0 33 -11.5t14 -30.5q0 -22 -18.5 -35t-39.5 -13q-20 0 -33 9.5t-13 31.5q0 23 17 36t40 13zM181 803q20 0 33.5 -11.5t13.5 -30.5q0 -20 -17.5 -34t-39.5 -14q-20 0 -33.5 9.5t-13.5 31.5q0 23 18 36t39 13zM153 158q0 -21 6 -39q6 -6 22.5 -8t41.5 -2 q20 0 42.5 1t46.5 3q49 0 74 -8q43 -14 43 -53q0 -11 -5 -24t-13 -21l-16 -7q-19 0 -38 3q-57 9 -65 9q-37 0 -75 -3q-113 -9 -124 -9q-28 0 -38 34t-10 89q0 31 1.5 58.5t3.5 50.5q-11 16 -17 28t-6 27q0 13 7 21t21 15q0 55 9 118t18 123q-3 5 -8.5 19t-5.5 20q0 43 92 57 q45 7 124 7q60 0 86 -6q55 -13 55 -54q0 -13 -12.5 -33t-22.5 -20q-2 0 -5 1q-16 6 -39 7.5t-32 1.5h-22t-22 1q-28 0 -48.5 -3.5t-35.5 -14.5q-8 -22 -15 -98.5t-7 -109.5q43 4 94 4q58 0 81 -6q49 -13 49 -53q0 -39 -35 -50q-18 5 -37.5 7t-39.5 2t-60 -3t-59 -3 q0 -13 -2 -45t-2 -34z"/>
<glyph glyph-name="Igrave" horiz-adv-x="219" unicode="Ì" d="M16 867q0 31 30 31q6 0 29 -19t52 -48q34 -32 51 -52.5t17 -27.5q0 -30 -28 -30q-16 0 -83 66q-68 66 -68 80zM168 33q0 -16 -17.5 -24.5t-35.5 -8.5q-47 0 -61 44q-8 24 -8 83q0 76 7 165.5t14.5 186t7.5 159.5q0 15 15.5 23t32.5 8q24 0 46.5 -15t22.5 -39 q0 -29 -5 -61t-10 -62q-23 -202 -23 -401q0 -10 7 -30t7 -28z"/>
<glyph glyph-name="Iacute" horiz-adv-x="247" unicode="Í" d="M224 901q29 0 29 -30q0 -12 -67 -79t-82 -67q-27 0 -27 28q0 17 65 82q66 66 82 66zM168 33q0 -16 -17.5 -24.5t-35.5 -8.5q-47 0 -61 44q-8 24 -8 83q0 76 7 165.5t14.5 186t7.5 159.5q0 15 15.5 23t32.5 8q24 0 46.5 -15t22.5 -39q0 -29 -5 -61t-10 -62 q-23 -202 -23 -401q0 -10 7 -30t7 -28z"/>
<glyph glyph-name="Icircumflex" horiz-adv-x="304" unicode="Î" d="M308 702q0 -31 -28 -31q-4 0 -9 1q-19 15 -36 31t-34 35l-4.5 4.5t-7 8t-12.5 15t-21 24.5q-11 -14 -23 -28t-24 -27v1q-57 -64 -73 -64q-30 0 -30 30q0 13 59 78l74 81h33q5 -7 14 -16t15 -16v1l22 -24t23 -24q62 -65 62 -80zM191 33q0 -16 -17.5 -24.5t-35.5 -8.5 q-47 0 -61 44q-8 24 -8 83q0 76 7 165.5t14.5 186t7.5 159.5q0 15 15.5 23t32.5 8q24 0 46.5 -15t22.5 -39q0 -29 -5 -61t-10 -62q-23 -202 -23 -401q0 -10 7 -30t7 -28z"/>
<glyph glyph-name="Idieresis" horiz-adv-x="275" unicode="Ï" d="M220 803q19 0 33 -11.5t14 -30.5q0 -22 -18.5 -35t-39.5 -13q-20 0 -33 9.5t-13 31.5q0 23 17 36t40 13zM72 803q20 0 33.5 -11.5t13.5 -30.5q0 -20 -17.5 -34t-39.5 -14q-20 0 -33.5 9.5t-13.5 31.5q0 23 18 36t39 13zM181 33q0 -16 -17.5 -24.5t-35.5 -8.5 q-47 0 -61 44q-8 24 -8 83q0 76 7 165.5t14.5 186t7.5 159.5q0 15 15.5 23t32.5 8q24 0 46.5 -15t22.5 -39q0 -29 -5 -61t-10 -62q-23 -202 -23 -401q0 -10 7 -30t7 -28z"/>
<glyph glyph-name="Eth" horiz-adv-x="561" unicode="Ð" d="M425 311q0 78 -48 142.5t-122 96.5q-12 -93 -19 -187q43 -2 67 -7q60 -12 60 -46q0 -13 -4.5 -23.5t-15.5 -10.5q-8 0 -18 3q-31 7 -71 10q-11 1 -23 1q-4 -88 -4 -178q82 0 140 58t58 141zM124 632q0 23 16 36t39 13q130 0 239 -122q106 -119 106 -249q0 -118 -78 -202 t-197 -96q-33 -8 -65 -16q-36 0 -49 38q-9 26 -9 73v21q0 80 3 164q-15 -1 -42 -3q-5 -4 -39 -10q-14 0 -21 11t-7 24q0 23 29 35q34 15 80 15h4q6 108 18 222q-11 8 -19 20t-8 26z"/>
<glyph glyph-name="Ntilde" horiz-adv-x="539" unicode="Ñ" d="M355 762q30 0 52 34q8 17 14 35.5t6 37.5q0 29 30 29q28 0 28 -29q0 -60 -28 -106q-36 -60 -98 -60q-51 0 -99 75q-35 59 -42 59q-24 0 -40 -22q-3 -3 -43 -112q-41 0 -41 30q0 29 6.5 55.5t19.5 48.5q17 27 41.5 42.5t53.5 15.5q45 0 95 -75q39 -58 45 -58zM452 667 q18 0 32.5 -11.5t14.5 -29.5q0 -53 -11 -170t-11 -178q0 -38 10 -161q5 -61 5 -96q0 -13 -16 -19.5t-30 -6.5q-41 0 -105 94q-50 73 -107 189q-23 47 -66 142q-5 -35 -6 -63.5t-1 -76.5q0 -66 5 -128t17 -123q-5 -15 -19 -22.5t-32 -7.5q-45 0 -63 60q-13 44 -13 121v40 t1 36q0 115 5 196q9 145 31 182q10 15 24.5 21.5t34.5 6.5q11 0 19.5 -1.5t16.5 -6.5t13 -26.5t10 -39.5q20 -60 51 -126q38 -81 109 -206q0 21 -1 55.5t-2 66.5q0 157 25 229q21 60 59 60z"/>
<glyph glyph-name="Ograve" d="M174 867q0 31 30 31q6 0 29 -19t52 -48q34 -32 51 -52.5t17 -27.5q0 -30 -28 -30q-16 0 -83 66q-68 66 -68 80zM143 273q0 -66 14 -108q22 -65 74 -65q84 0 117 171q13 68 13 130q0 63 -11 100q-19 63 -67 63q-41 0 -66 -51.5t-43 -51.5q-31 -93 -31 -188zM314 653 q83 0 124 -99q31 -74 31 -170q0 -144 -51 -249q-66 -136 -194 -136q-101 0 -151 91q-40 73 -40 184q0 102 51 242q63 172 145 172q17 0 30.5 -10.5t21.5 -27.5z" unicode="Ò"/>
<glyph glyph-name="Oacute" d="M424 869q29 0 29 -30q0 -12 -67 -79t-82 -67q-27 0 -27 28q0 17 65 82q66 66 82 66zM143 273q0 -66 14 -108q22 -65 74 -65q84 0 117 171q13 68 13 130q0 63 -11 100q-19 63 -67 63q-41 0 -66 -51.5t-43 -51.5q-31 -93 -31 -188zM314 653q83 0 124 -99q31 -74 31 -170 q0 -144 -51 -249q-66 -136 -194 -136q-101 0 -151 91q-40 73 -40 184q0 102 51 242q63 172 145 172q17 0 30.5 -10.5t21.5 -27.5z" unicode="Ó"/>
<glyph glyph-name="Ocircumflex" d="M410 728q0 -31 -28 -31q-4 0 -9 1q-19 15 -36 31t-34 35l-4.5 4.5t-7 8t-12.5 15t-21 24.5q-11 -14 -23 -28t-24 -27v1q-57 -64 -73 -64q-30 0 -30 30q0 13 59 78l74 81h33q5 -7 14 -16t15 -16v1l22 -24t23 -24q62 -65 62 -80zM143 273q0 -66 14 -108q22 -65 74 -65 q84 0 117 171q13 68 13 130q0 63 -11 100q-19 63 -67 63q-41 0 -66 -51.5t-43 -51.5q-31 -93 -31 -188zM314 653q83 0 124 -99q31 -74 31 -170q0 -144 -51 -249q-66 -136 -194 -136q-101 0 -151 91q-40 73 -40 184q0 102 51 242q63 172 145 172q17 0 30.5 -10.5t21.5 -27.5z " unicode="Ô"/>
<glyph glyph-name="Otilde" d="M355 762q30 0 52 34q8 17 14 35.5t6 37.5q0 29 30 29q28 0 28 -29q0 -60 -28 -106q-36 -60 -98 -60q-51 0 -99 75q-35 59 -42 59q-24 0 -40 -22q-3 -3 -43 -112q-41 0 -41 30q0 29 6.5 55.5t19.5 48.5q17 27 41.5 42.5t53.5 15.5q45 0 95 -75q39 -58 45 -58zM143 273 q0 -66 14 -108q22 -65 74 -65q84 0 117 171q13 68 13 130q0 63 -11 100q-19 63 -67 63q-41 0 -66 -51.5t-43 -51.5q-31 -93 -31 -188zM314 653q83 0 124 -99q31 -74 31 -170q0 -144 -51 -249q-66 -136 -194 -136q-101 0 -151 91q-40 73 -40 184q0 102 51 242q63 172 145 172 q17 0 30.5 -10.5t21.5 -27.5z" unicode="Õ"/>
<glyph glyph-name="Odieresis" d="M365 823q19 0 33 -11.5t14 -30.5q0 -22 -18.5 -35t-39.5 -13q-20 0 -33 9.5t-13 31.5q0 23 17 36t40 13zM217 823q20 0 33.5 -11.5t13.5 -30.5q0 -20 -17.5 -34t-39.5 -14q-20 0 -33.5 9.5t-13.5 31.5q0 23 18 36t39 13zM143 273q0 -66 14 -108q22 -65 74 -65 q84 0 117 171q13 68 13 130q0 63 -11 100q-19 63 -67 63q-41 0 -66 -51.5t-43 -51.5q-31 -93 -31 -188zM314 653q83 0 124 -99q31 -74 31 -170q0 -144 -51 -249q-66 -136 -194 -136q-101 0 -151 91q-40 73 -40 184q0 102 51 242q63 172 145 172q17 0 30.5 -10.5t21.5 -27.5z " unicode="Ö"/>
<glyph glyph-name="multiply" horiz-adv-x="500" unicode="×" d="M156 167q-4 -4 -11 -4q-5 -1 -11 1q-14 4 -23 13q-20 17 -20 38q0 8 3 16q6 16 32 45q30 35 67 72q-13 11 -45 35q-34 23 -67 44q-12 9 -12 21q0 15 11 28q10 11 25 11q10 0 24 -5q41 -14 108 -71l11 -9l41 41q46 46 74 78q4 5 11 5q4 0 9 -2q13 -4 22 -12q15 -12 21 -31 q3 -7 3 -14q0 -10 -6 -17q-13 -14 -30 -28t-33 -27q-25 -23 -50 -47q52 -45 75 -74q28 -35 28 -59q0 -13 -8 -23q-9 -10 -20 -15t-21 3q-7 6 -14 16q-22 29 -55 61q-19 19 -40 37q-42 -45 -82 -91q-4 -5 -7 -13q-8 -20 -10 -23z"/>
<glyph glyph-name="Oslash" d="M233 99q69 0 103 123q24 86 24 180q0 22 -3 46.5t-8 46.5q-18 -49 -46.5 -132.5t-43.5 -129.5q-21 -67 -42 -133zM308 556q-14 6 -24 6q-44 0 -69.5 -51.5t-40.5 -51.5q-31 -93 -31 -187q0 -43 5 -71.5t21 -58.5q69 207 139 414zM33 282q0 99 53 238q63 166 143 166 q18 0 30 -10t20 -28q16 4 34 4t33 -4q10 21 21.5 42.5t25.5 38.5l15 4l22 -8l10 -18l-44 -90q40 -44 58 -111q15 -56 15 -127q0 -142 -51 -248q-65 -135 -188 -135h-25q-12 3 -17 4q-9 -36 -9 -67q0 -20 -26 -20q-16 0 -26 7t-10 22t2 24.5t15 56.5q-56 38 -81 115 q-20 62 -20 144z" unicode="Ø"/>
<glyph glyph-name="Ugrave" horiz-adv-x="522" unicode="Ù" d="M143 867q0 31 30 31q6 0 29 -19t52 -48q34 -32 51 -52.5t17 -27.5q0 -30 -28 -30q-16 0 -83 66q-68 66 -68 80zM214 -6q-98 0 -145 97q-36 74 -36 183t20 220q30 169 89 169q20 0 39 -12t19 -31q0 -7 -2 -13.5t-7 -21.5q-25 -82 -37.5 -164.5t-12.5 -171.5q0 -54 8 -85 q15 -57 53 -57q62 0 105 140q27 89 52 264q21 148 26 152q9 7 19 9.5t26 2.5q25 0 43.5 -11t18.5 -35q0 -62 -18.5 -186.5t-18.5 -183.5q0 -40 12 -92.5t25 -104.5q0 -19 -14.5 -32.5t-33.5 -13.5q-42 0 -63 42q-13 26 -22 80q-31 -79 -71 -114q-34 -30 -74 -30z"/>
<glyph glyph-name="Uacute" horiz-adv-x="522" unicode="Ú" d="M350 869q29 0 29 -30q0 -12 -67 -79t-82 -67q-27 0 -27 28q0 17 65 82q66 66 82 66zM214 -6q-98 0 -145 97q-36 74 -36 183t20 220q30 169 89 169q20 0 39 -12t19 -31q0 -7 -2 -13.5t-7 -21.5q-25 -82 -37.5 -164.5t-12.5 -171.5q0 -54 8 -85q15 -57 53 -57q62 0 105 140 q27 89 52 264q21 148 26 152q9 7 19 9.5t26 2.5q25 0 43.5 -11t18.5 -35q0 -62 -18.5 -186.5t-18.5 -183.5q0 -40 12 -92.5t25 -104.5q0 -19 -14.5 -32.5t-33.5 -13.5q-42 0 -63 42q-13 26 -22 80q-31 -79 -71 -114q-34 -30 -74 -30z"/>
<glyph glyph-name="Ucircumflex" horiz-adv-x="522" unicode="Û" d="M435 744q0 -31 -28 -31q-4 0 -9 1q-19 15 -36 31t-34 35l-4.5 4.5t-7 8t-12.5 15t-21 24.5q-11 -14 -23 -28t-24 -27v1q-57 -64 -73 -64q-30 0 -30 30q0 13 59 78l74 81h33q5 -7 14 -16t15 -16v1l22 -24t23 -24q62 -65 62 -80zM214 -6q-98 0 -145 97q-36 74 -36 183 t20 220q30 169 89 169q20 0 39 -12t19 -31q0 -7 -2 -13.5t-7 -21.5q-25 -82 -37.5 -164.5t-12.5 -171.5q0 -54 8 -85q15 -57 53 -57q62 0 105 140q27 89 52 264q21 148 26 152q9 7 19 9.5t26 2.5q25 0 43.5 -11t18.5 -35q0 -62 -18.5 -186.5t-18.5 -183.5q0 -40 12 -92.5 t25 -104.5q0 -19 -14.5 -32.5t-33.5 -13.5q-42 0 -63 42q-13 26 -22 80q-31 -79 -71 -114q-34 -30 -74 -30z"/>
<glyph glyph-name="Udieresis" horiz-adv-x="522" unicode="Ü" d="M357 815q19 0 33 -11.5t14 -30.5q0 -22 -18.5 -35t-39.5 -13q-20 0 -33 9.5t-13 31.5q0 23 17 36t40 13zM209 815q20 0 33.5 -11.5t13.5 -30.5q0 -20 -17.5 -34t-39.5 -14q-20 0 -33.5 9.5t-13.5 31.5q0 23 18 36t39 13zM214 -6q-98 0 -145 97q-36 74 -36 183t20 220 q30 169 89 169q20 0 39 -12t19 -31q0 -7 -2 -13.5t-7 -21.5q-25 -82 -37.5 -164.5t-12.5 -171.5q0 -54 8 -85q15 -57 53 -57q62 0 105 140q27 89 52 264q21 148 26 152q9 7 19 9.5t26 2.5q25 0 43.5 -11t18.5 -35q0 -62 -18.5 -186.5t-18.5 -183.5q0 -40 12 -92.5t25 -104.5 q0 -19 -14.5 -32.5t-33.5 -13.5q-42 0 -63 42q-13 26 -22 80q-31 -79 -71 -114q-34 -30 -74 -30z"/>
<glyph glyph-name="Yacute" horiz-adv-x="519" unicode="Ý" d="M350 869q29 0 29 -30q0 -12 -67 -79t-82 -67q-27 0 -27 28q0 17 65 82q66 66 82 66zM70 527q-3 7 -24 47q-16 31 -20 47l9 23q7 9 21.5 16.5t27.5 7.5q52 0 101 -126q11 -27 54 -176q59 149 68 168q59 125 100 125q24 0 45 -13t21 -36q0 -5 -19 -39l-50 -88 q-37 -76 -72 -167q-26 -69 -61 -173q-14 -59 -23 -93q-18 -63 -45 -63q-29 0 -50.5 16t-21.5 44q0 24 18 77q12 36 30 76q-18 78 -48 165q-23 69 -61 162z"/>
<glyph glyph-name="Thorn" horiz-adv-x="479" unicode="Þ" d="M355 357q0 43 -56 68q-38 19 -89 19l-22 -1q-9 -68 -13 -101q-7 -48 -7 -91q59 6 112 28q75 33 75 78zM86 447q-16 6 -25 16t-9 26q0 23 34 48q10 8 20 14q8 26 13 50q2 7 0 21.5t-1 22.5q3 18 23.5 24.5t36.5 6.5h9q26 -3 38.5 -15t12.5 -30q0 -4 -1 -9q-5 -45 -24 -78 q124 -16 186 -65q59 -52 59 -126q0 -63 -63 -115q-80 -66 -234 -89q-1 -19 -1 -36q0 -41 7 -65q5 -17 5 -28q-11 -33 -47 -33q-41 0 -58 43q-9 23 -9 77q0 25 2 58q-11 15 -15 23q-7 13 -7 26l6 17l21 9q0 49 11 124q8 64 10 83z"/>
<glyph glyph-name="germandbls" horiz-adv-x="496" unicode="ß" d="M388 552q0 -36 -28 -78q-61 -92 -61 -98q-7 -22 120 -110q57 -58 57 -116q0 -66 -41.5 -112t-128.5 -46q-40 0 -80 22q-47 26 -47 63q4 13 5 19q5 7 16 12t21 5q12 0 33.5 -26.5t49.5 -26.5t50 20t22 49q0 57 -92 124t-92 100q0 4 1 7q7 37 52 94.5t49 90.5q0 21 -13 33 t-33 12q-58 0 -81 -113q-16 -78 -16 -199v-53.5t1 -44.5q0 -22 4.5 -64.5t10.5 -89.5q-6 -15 -21.5 -21t-35.5 -6q-38 0 -53 36q-11 27 -11 76v29.5t1 28.5v122q0 110 5 154q11 98 51 153q49 67 144 67q55 0 98 -29.5t43 -83.5z"/>
<glyph glyph-name="agrave" horiz-adv-x="382" unicode="à" d="M103 672q0 31 30 31q6 0 29 -19t52 -48q34 -32 51 -52.5t17 -27.5q0 -30 -28 -30q-16 0 -83 66q-68 66 -68 80zM103 123q0 -24 30 -24q28 0 61 18t40 43q2 7 2 19.5v18.5v21q-42 0 -84 -26q-49 -30 -49 -70zM128 10q-49 0 -83 25q-38 28 -38 76q0 80 77 137q63 47 151 62 l1 24q0 26 -3 36q-6 21 -25 21q-26 0 -46 -26q-45 -58 -60 -58q-16 0 -29.5 11.5t-13.5 28.5q0 44 56 88t102 44q70 0 99 -63q22 -48 22 -138q0 -30 -3 -80t-3 -65q0 -17 5.5 -38.5t11.5 -43.5q0 -19 -21.5 -35.5t-42.5 -16.5q-19 0 -32 14t-19 34q-48 -37 -106 -37z"/>
<glyph glyph-name="aacute" horiz-adv-x="382" unicode="á" d="M264 693q29 0 29 -30q0 -12 -67 -79t-82 -67q-27 0 -27 28q0 17 65 82q66 66 82 66zM103 123q0 -24 30 -24q28 0 61 18t40 43q2 7 2 19.5v18.5v21q-42 0 -84 -26q-49 -30 -49 -70zM128 10q-49 0 -83 25q-38 28 -38 76q0 80 77 137q63 47 151 62l1 24q0 26 -3 36 q-6 21 -25 21q-26 0 -46 -26q-45 -58 -60 -58q-16 0 -29.5 11.5t-13.5 28.5q0 44 56 88t102 44q70 0 99 -63q22 -48 22 -138q0 -30 -3 -80t-3 -65q0 -17 5.5 -38.5t11.5 -43.5q0 -19 -21.5 -35.5t-42.5 -16.5q-19 0 -32 14t-19 34q-48 -37 -106 -37z"/>
<glyph glyph-name="acircumflex" horiz-adv-x="382" unicode="â" d="M352 550q0 -31 -28 -31q-4 0 -9 1q-19 15 -36 31t-34 35l-4.5 4.5t-7 8t-12.5 15t-21 24.5q-11 -14 -23 -28t-24 -27v1q-57 -64 -73 -64q-30 0 -30 30q0 13 59 78l74 81h33q5 -7 14 -16t15 -16v1l22 -24t23 -24q62 -65 62 -80zM103 123q0 -24 30 -24q28 0 61 18t40 43 q2 7 2 19.5v18.5v21q-42 0 -84 -26q-49 -30 -49 -70zM128 10q-49 0 -83 25q-38 28 -38 76q0 80 77 137q63 47 151 62l1 24q0 26 -3 36q-6 21 -25 21q-26 0 -46 -26q-45 -58 -60 -58q-16 0 -29.5 11.5t-13.5 28.5q0 44 56 88t102 44q70 0 99 -63q22 -48 22 -138q0 -30 -3 -80 t-3 -65q0 -17 5.5 -38.5t11.5 -43.5q0 -19 -21.5 -35.5t-42.5 -16.5q-19 0 -32 14t-19 34q-48 -37 -106 -37z"/>
<glyph glyph-name="atilde" horiz-adv-x="382" unicode="ã" d="M255 580q30 0 51 32q8 17 14 34.5t6 36.5q0 27 29 27q27 0 27 -27q0 -59 -27 -102q-35 -58 -96 -58q-49 0 -96 71q-32 57 -40 57q-23 0 -40 -20q-4 -6 -41 -108q-40 0 -40 28q0 59 26 100q33 56 92 56q21 0 44.5 -17.5t47.5 -53.5q20 -29 30 -42.5t13 -13.5zM103 123 q0 -24 30 -24q28 0 61 18t40 43q2 7 2 19.5v18.5v21q-42 0 -84 -26q-49 -30 -49 -70zM128 10q-49 0 -83 25q-38 28 -38 76q0 80 77 137q63 47 151 62l1 24q0 26 -3 36q-6 21 -25 21q-26 0 -46 -26q-45 -58 -60 -58q-16 0 -29.5 11.5t-13.5 28.5q0 44 56 88t102 44 q70 0 99 -63q22 -48 22 -138q0 -30 -3 -80t-3 -65q0 -17 5.5 -38.5t11.5 -43.5q0 -19 -21.5 -35.5t-42.5 -16.5q-19 0 -32 14t-19 34q-48 -37 -106 -37z"/>
<glyph glyph-name="adieresis" horiz-adv-x="382" unicode="ä" d="M276 615q19 0 33 -11.5t14 -30.5q0 -22 -18.5 -35t-39.5 -13q-20 0 -33 9.5t-13 31.5q0 23 17 36t40 13zM128 615q20 0 33.5 -11.5t13.5 -30.5q0 -20 -17.5 -34t-39.5 -14q-20 0 -33.5 9.5t-13.5 31.5q0 23 18 36t39 13zM103 123q0 -24 30 -24q28 0 61 18t40 43 q2 7 2 19.5v18.5v21q-42 0 -84 -26q-49 -30 -49 -70zM128 10q-49 0 -83 25q-38 28 -38 76q0 80 77 137q63 47 151 62l1 24q0 26 -3 36q-6 21 -25 21q-26 0 -46 -26q-45 -58 -60 -58q-16 0 -29.5 11.5t-13.5 28.5q0 44 56 88t102 44q70 0 99 -63q22 -48 22 -138q0 -30 -3 -80 t-3 -65q0 -17 5.5 -38.5t11.5 -43.5q0 -19 -21.5 -35.5t-42.5 -16.5q-19 0 -32 14t-19 34q-48 -37 -106 -37z"/>
<glyph glyph-name="aring" horiz-adv-x="382" unicode="å" d="M341 657q0 -54 -40 -96q-42 -40 -97 -40q-48 0 -78 30.5t-30 79.5q0 55 38 96q40 40 97 40q23 0 43 -8t35 -23t23.5 -35t8.5 -44zM204 580q32 0 55 24q23 25 23 55q0 23 -14.5 36.5t-37.5 13.5q-32 0 -54 -22t-22 -54q0 -53 50 -53zM103 123q0 -24 30 -24q28 0 61 18 t40 43q2 7 2 19.5v18.5v21q-42 0 -84 -26q-49 -30 -49 -70zM128 10q-49 0 -83 25q-38 28 -38 76q0 80 77 137q63 47 151 62l1 24q0 26 -3 36q-6 21 -25 21q-26 0 -46 -26q-45 -58 -60 -58q-16 0 -29.5 11.5t-13.5 28.5q0 44 56 88t102 44q70 0 99 -63q22 -48 22 -138 q0 -30 -3 -80t-3 -65q0 -17 5.5 -38.5t11.5 -43.5q0 -19 -21.5 -35.5t-42.5 -16.5q-19 0 -32 14t-19 34q-48 -37 -106 -37z"/>
<glyph glyph-name="ae" horiz-adv-x="627" unicode="æ" d="M104 121q0 -18 20 -25q11 -4 22 -4q25 0 49 13q31 16 39 46q5 18 5 63q-45 -9 -83 -30q-52 -29 -52 -63zM468 367q0 16 -11 16q-7 0 -15.5 -5t-16.5 -12q-32 -25 -51 -59q-15 -27 -28 -74q42 21 77 55q45 44 45 79zM241 312q0 30 -2 41q-5 29 -24 29q-31 0 -55 -41 t-48 -41q-18 0 -32 12t-14 30q0 43 57 84.5t103 41.5q38 0 63 -20t42 -58q28 34 56 53q36 25 71 25q43 0 69 -31t26 -75q0 -78 -71 -146q-64 -61 -146 -80q2 -26 15.5 -41t39.5 -15q66 0 110 66t51 66q23 0 39 -15t16 -38q0 -61 -75 -113q-69 -48 -134 -48q-77 0 -125 55 q-31 -24 -65 -38.5t-70 -14.5q-52 0 -90 29q-41 32 -41 82q0 76 82 131q65 44 152 61v9z"/>
<glyph glyph-name="ccedilla" horiz-adv-x="372" unicode="ç" d="M23 144q0 79 44 189q52 131 117 131q40 0 77.5 -35.5t37.5 -76.5q0 -21 -14 -34t-35 -13q-3 0 -11.5 3.5t-10.5 3.5q-5 5 -13 25t-17 25q-31 -23 -55 -90.5t-24 -113.5q0 -36 13 -53.5t32 -17.5q45 0 81 65q15 28 30 57l17 4q21 0 37 -16t16 -38q0 -55 -66 -109 q-90 -73 -99 -87q16 4 27 4q35 0 57.5 -24.5t22.5 -60.5q0 -49 -39 -83t-90 -34q-26 0 -52 11q-33 14 -33 37l6 16l12 7q8 -2 27.5 -9.5t31.5 -7.5q25 0 45 16.5t20 40.5q0 23 -11 30.5t-33 7.5h-15.5t-14.5 -1q-12 0 -21 8.5t-14 21.5q5 13 18 30q10 13 24 26 q-58 5 -91.5 45t-33.5 100z"/>
<glyph glyph-name="egrave" horiz-adv-x="411" unicode="è" d="M103 672q0 31 30 31q6 0 29 -19t52 -48q34 -32 51 -52.5t17 -27.5q0 -30 -28 -30q-16 0 -83 66q-68 66 -68 80zM256 376q0 15 -12 15q-30 0 -68 -62q-29 -48 -43 -92q39 21 77 59q46 46 46 80zM178 88q57 0 93 40q33 44 67 88q22 0 37.5 -14.5t15.5 -37.5q0 -62 -73 -115 q-68 -49 -133 -49q-70 0 -117.5 43.5t-47.5 112.5q0 93 66 200q73 119 159 119q44 0 70.5 -31t26.5 -76q0 -81 -74 -148q-65 -59 -151 -80q11 -52 61 -52z"/>
<glyph glyph-name="eacute" horiz-adv-x="411" unicode="é" d="M297 692q29 0 29 -30q0 -12 -67 -79t-82 -67q-27 0 -27 28q0 17 65 82q66 66 82 66zM256 376q0 15 -12 15q-30 0 -68 -62q-29 -48 -43 -92q39 21 77 59q46 46 46 80zM178 88q57 0 93 40q33 44 67 88q22 0 37.5 -14.5t15.5 -37.5q0 -62 -73 -115q-68 -49 -133 -49 q-70 0 -117.5 43.5t-47.5 112.5q0 93 66 200q73 119 159 119q44 0 70.5 -31t26.5 -76q0 -81 -74 -148q-65 -59 -151 -80q11 -52 61 -52z"/>
<glyph glyph-name="ecircumflex" horiz-adv-x="411" unicode="ê" d="M374 538q0 -31 -28 -31q-4 0 -9 1q-19 15 -36 31t-34 35l-4.5 4.5t-7 8t-12.5 15t-21 24.5q-11 -14 -23 -28t-24 -27v1q-57 -64 -73 -64q-30 0 -30 30q0 13 59 78l74 81h33q5 -7 14 -16t15 -16v1l22 -24t23 -24q62 -65 62 -80zM256 376q0 15 -12 15q-30 0 -68 -62 q-29 -48 -43 -92q39 21 77 59q46 46 46 80zM178 88q57 0 93 40q33 44 67 88q22 0 37.5 -14.5t15.5 -37.5q0 -62 -73 -115q-68 -49 -133 -49q-70 0 -117.5 43.5t-47.5 112.5q0 93 66 200q73 119 159 119q44 0 70.5 -31t26.5 -76q0 -81 -74 -148q-65 -59 -151 -80 q11 -52 61 -52z"/>
<glyph glyph-name="edieresis" horiz-adv-x="411" unicode="ë" d="M290 619q19 0 33 -11.5t14 -30.5q0 -22 -18.5 -35t-39.5 -13q-20 0 -33 9.5t-13 31.5q0 23 17 36t40 13zM142 619q20 0 33.5 -11.5t13.5 -30.5q0 -20 -17.5 -34t-39.5 -14q-20 0 -33.5 9.5t-13.5 31.5q0 23 18 36t39 13zM256 376q0 15 -12 15q-30 0 -68 -62 q-29 -48 -43 -92q39 21 77 59q46 46 46 80zM178 88q57 0 93 40q33 44 67 88q22 0 37.5 -14.5t15.5 -37.5q0 -62 -73 -115q-68 -49 -133 -49q-70 0 -117.5 43.5t-47.5 112.5q0 93 66 200q73 119 159 119q44 0 70.5 -31t26.5 -76q0 -81 -74 -148q-65 -59 -151 -80 q11 -52 61 -52z"/>
<glyph glyph-name="igrave" horiz-adv-x="281" unicode="ì" d="M46 691q0 31 30 31q6 0 29 -19t52 -48q34 -32 51 -52.5t17 -27.5q0 -30 -28 -30q-16 0 -83 66q-68 66 -68 80zM141 1q-35 0 -51 31q-12 23 -12 63q0 52 8 155t8 155q0 6 -3 19t-3 20q0 17 21.5 26.5t40.5 9.5q23 0 36.5 -10t13.5 -33q0 -43 -11 -148t-11 -159 q0 -18 5.5 -50t5.5 -42q0 -16 -15.5 -26.5t-32.5 -10.5z"/>
<glyph glyph-name="iacute" horiz-adv-x="283" unicode="í" d="M266 691q0 -14 -68 -80q-67 -66 -83 -66q-28 0 -28 30q0 7 17 27.5t51 52.5q29 29 52 48t29 19q30 0 30 -31zM141 1q-35 0 -51 31q-12 23 -12 63q0 52 8 155t8 155q0 6 -3 19t-3 20q0 17 21.5 26.5t40.5 9.5q23 0 36.5 -10t13.5 -33q0 -43 -11 -148t-11 -159 q0 -18 5.5 -50t5.5 -42q0 -16 -15.5 -26.5t-32.5 -10.5z"/>
<glyph glyph-name="icircumflex" horiz-adv-x="337" unicode="î" d="M320 563q0 -31 -28 -31q-4 0 -9 1q-19 15 -36 31t-34 35l-4.5 4.5t-7 8t-12.5 15t-21 24.5q-11 -14 -23 -28t-24 -27v1q-57 -64 -73 -64q-30 0 -30 30q0 13 59 78l74 81h33q5 -7 14 -16t15 -16v1l22 -24t23 -24q62 -65 62 -80zM167 1q-35 0 -51 31q-12 23 -12 63 q0 52 8 155t8 155q0 6 -3 19t-3 20q0 17 21.5 26.5t40.5 9.5q23 0 36.5 -10t13.5 -33q0 -43 -11 -148t-11 -159q0 -18 5.5 -50t5.5 -42q0 -16 -15.5 -26.5t-32.5 -10.5z"/>
<glyph glyph-name="idieresis" horiz-adv-x="281" unicode="ï" d="M222 615q19 0 33 -11.5t14 -30.5q0 -22 -18.5 -35t-39.5 -13q-20 0 -33 9.5t-13 31.5q0 23 17 36t40 13zM74 615q20 0 33.5 -11.5t13.5 -30.5q0 -20 -17.5 -34t-39.5 -14q-20 0 -33.5 9.5t-13.5 31.5q0 23 18 36t39 13zM138 1q-35 0 -51 31q-12 23 -12 63q0 52 8 155 t8 155q0 6 -3 19t-3 20q0 17 21.5 26.5t40.5 9.5q23 0 36.5 -10t13.5 -33q0 -43 -11 -148t-11 -159q0 -18 5.5 -50t5.5 -42q0 -16 -15.5 -26.5t-32.5 -10.5z"/>
<glyph glyph-name="eth" horiz-adv-x="472" unicode="ð" d="M190 164q0 -42 12.5 -60t34.5 -18q49 0 79 90q23 70 23 113q0 32 -7 52q-11 31 -37 31q-27 0 -43.5 -16.5t-28.5 -40.5q-16 -46 -24.5 -76.5t-8.5 -74.5zM83 628q-22 13 -22 32q0 14 12 31q19 17 38 17q17 0 33 -13q24 -14 69 -37q49 29 78 41q23 8 40 8q26 0 40 -19 q8 -13 10.5 -25t-6.5 -19q-7 -4 -18 -8q-32 -10 -68 -30q-2 -1 -5 -2q18 -15 37 -32q44 -48 71 -103q28 -62 34 -114q9 -33 9 -76q0 -89 -42 -173q-53 -107 -150 -107q-74 0 -112 53q-34 48 -34 125q0 74 33 156q42 127 98 127q14 -1 27 -17q17 13 37 16q-10 12 -34 39 q-22 24 -58 54q-6 -5 -12 -8q-12 -8 -41 -31q-28 -24 -53 -50q-12 -6 -24.5 1t-21.5 18q-6 10 -6 22q0 14 9 29q20 30 75 68q-25 17 -43 27z"/>
<glyph glyph-name="ntilde" horiz-adv-x="449" unicode="ñ" d="M288 580q30 0 51 32q8 17 14 34.5t6 36.5q0 27 29 27q27 0 27 -27q0 -59 -27 -102q-35 -58 -96 -58q-49 0 -96 71q-32 57 -40 57q-23 0 -40 -20q-4 -6 -41 -108q-40 0 -40 28q0 59 26 100q33 56 92 56q21 0 44.5 -17.5t47.5 -53.5q20 -29 30 -42.5t13 -13.5zM316 475 q48 0 66 -88q11 -53 11 -127v-32q0 -91 -9 -142q-15 -85 -55 -85q-18 0 -36 13t-18 30q0 25 9 79t9 82q0 42 -1 56q-4 50 -15 50q-48 -30 -83.5 -120.5t-35.5 -156.5q0 -16 -16.5 -26.5t-33.5 -10.5q-26 0 -35.5 22t-9.5 52q0 49 14 195q7 73 7 118q0 11 -5.5 36t-5.5 31 q0 18 20 27.5t39 9.5q29 0 42 -27q10 -21 10 -61q0 -19 -3 -51t-3 -41q33 68 54 100q45 67 84 67z"/>
<glyph glyph-name="ograve" horiz-adv-x="391" unicode="ò" d="M103 672q0 31 30 31q6 0 29 -19t52 -48q34 -32 51 -52.5t17 -27.5q0 -30 -28 -30q-16 0 -83 66q-68 66 -68 80zM119 164q0 -42 12.5 -60t34.5 -18q49 0 79 90q23 70 23 132q0 32 -7 52q-11 31 -37 31q-27 0 -42 -28.5t-26 -28.5q-2 0 -4 1q-16 -47 -24.5 -87t-8.5 -84z M240 480q64 0 97 -61q27 -50 27 -121q0 -107 -42 -192q-53 -107 -150 -107q-74 0 -112 53q-34 48 -34 125q0 75 33 176q41 126 98 126q19 0 34 -15q20 16 49 16z"/>
<glyph glyph-name="oacute" horiz-adv-x="391" unicode="ó" d="M264 693q29 0 29 -30q0 -12 -67 -79t-82 -67q-27 0 -27 28q0 17 65 82q66 66 82 66zM119 164q0 -42 12.5 -60t34.5 -18q49 0 79 90q23 70 23 132q0 32 -7 52q-11 31 -37 31q-27 0 -42 -28.5t-26 -28.5q-2 0 -4 1q-16 -47 -24.5 -87t-8.5 -84zM240 480q64 0 97 -61 q27 -50 27 -121q0 -107 -42 -192q-53 -107 -150 -107q-74 0 -112 53q-34 48 -34 125q0 75 33 176q41 126 98 126q19 0 34 -15q20 16 49 16z"/>
<glyph glyph-name="ocircumflex" horiz-adv-x="391" unicode="ô" d="M352 561q0 -31 -28 -31q-4 0 -9 1q-19 15 -36 31t-34 35l-4.5 4.5t-7 8t-12.5 15t-21 24.5q-11 -14 -23 -28t-24 -27v1q-57 -64 -73 -64q-30 0 -30 30q0 13 59 78l74 81h33q5 -7 14 -16t15 -16v1l22 -24t23 -24q62 -65 62 -80zM119 164q0 -42 12.5 -60t34.5 -18 q49 0 79 90q23 70 23 132q0 32 -7 52q-11 31 -37 31q-27 0 -42 -28.5t-26 -28.5q-2 0 -4 1q-16 -47 -24.5 -87t-8.5 -84zM240 480q64 0 97 -61q27 -50 27 -121q0 -107 -42 -192q-53 -107 -150 -107q-74 0 -112 53q-34 48 -34 125q0 75 33 176q41 126 98 126q19 0 34 -15 q20 16 49 16z"/>
<glyph glyph-name="otilde" horiz-adv-x="391" unicode="õ" d="M258 586q30 0 51 32q8 17 14 34.5t6 36.5q0 27 29 27q27 0 27 -27q0 -59 -27 -102q-35 -58 -96 -58q-49 0 -96 71q-32 57 -40 57q-23 0 -40 -20q-4 -6 -41 -108q-40 0 -40 28q0 59 26 100q33 56 92 56q21 0 44.5 -17.5t47.5 -53.5q20 -29 30 -42.5t13 -13.5zM119 164 q0 -42 12.5 -60t34.5 -18q49 0 79 90q23 70 23 132q0 32 -7 52q-11 31 -37 31q-27 0 -42 -28.5t-26 -28.5q-2 0 -4 1q-16 -47 -24.5 -87t-8.5 -84zM240 480q64 0 97 -61q27 -50 27 -121q0 -107 -42 -192q-53 -107 -150 -107q-74 0 -112 53q-34 48 -34 125q0 75 33 176 q41 126 98 126q19 0 34 -15q20 16 49 16z"/>
<glyph glyph-name="odieresis" horiz-adv-x="391" unicode="ö" d="M277 635q19 0 33 -11.5t14 -30.5q0 -22 -18.5 -35t-39.5 -13q-20 0 -33 9.5t-13 31.5q0 23 17 36t40 13zM129 635q20 0 33.5 -11.5t13.5 -30.5q0 -20 -17.5 -34t-39.5 -14q-20 0 -33.5 9.5t-13.5 31.5q0 23 18 36t39 13zM119 164q0 -42 12.5 -60t34.5 -18q49 0 79 90 q23 70 23 132q0 32 -7 52q-11 31 -37 31q-27 0 -42 -28.5t-26 -28.5q-2 0 -4 1q-16 -47 -24.5 -87t-8.5 -84zM240 480q64 0 97 -61q27 -50 27 -121q0 -107 -42 -192q-53 -107 -150 -107q-74 0 -112 53q-34 48 -34 125q0 75 33 176q41 126 98 126q19 0 34 -15q20 16 49 16z "/>
<glyph glyph-name="divide" horiz-adv-x="488" unicode="÷" d="M274 301q40 0 71 -1.5t51 -5.5q35 -6 55 -19.5t20 -29.5q0 -17 -7 -29t-26 -12q-11 0 -21 3q-36 6 -81 8.5t-89 2.5h-40h-13t-19 -1h-12q-3 0 -6.5 -0.5t-7.5 -0.5q-20 -2 -39 -4.5t-36 -4.5q-22 0 -33 12t-11 27q0 29 40 41q19 7 51 11q33 4 77 3h76zM255 456 q24 0 41.5 -12.5t17.5 -37.5q0 -14 -7 -25.5t-18 -19.5t-25 -13t-27 -5q-24 0 -41.5 13.5t-17.5 37.5q0 14 7 25.5t18 19.5t24.5 12.5t27.5 4.5zM255 178q24 0 41.5 -12t17.5 -37q0 -14 -7 -25.5t-18 -19.5t-25 -13t-27 -5q-24 0 -41.5 13.5t-17.5 36.5q0 29 24.5 45.5 t52.5 16.5z"/>
<glyph glyph-name="oslash" horiz-adv-x="394" unicode="ø" d="M165 86q49 0 81 86q25 67 25 128l-2 28q-61 -119 -121 -238q12 -4 17 -4zM225 391q-25 0 -41 -29t-28 -29h-2q-16 -41 -25 -82t-9 -84v-14l60 117q35 67 63 116q-10 5 -18 5zM26 178q0 74 35 176q43 127 101 127q17 0 31 -16q22 16 50 16q27 0 49 -13q27 44 40 57t34 20 l19 -7l7 -17q-3 -9 -18 -30q-41 -58 -42 -59q18 -25 26.5 -59.5t8.5 -68.5q0 -110 -44 -197q-55 -109 -156 -109q-28 0 -54 12q-9 -42 -12 -51q-12 -33 -30 -33l-22 9l-8 21q0 17 9 40.5t18 45.5q-21 28 -31.5 63t-10.5 73z"/>
<glyph glyph-name="ugrave" horiz-adv-x="415" unicode="ù" d="M103 672q0 31 30 31q6 0 29 -19t52 -48q34 -32 51 -52.5t17 -27.5q0 -30 -28 -30q-16 0 -83 66q-68 66 -68 80zM131 8q-55 0 -81 56q-20 43 -20 105q0 126 26 217q23 81 62 81q19 0 36 -13t17 -32q0 -7 -16 -64t-18 -68q-11 -64 -11 -123q0 -22 2 -33.5t14 -16.5 q54 13 97 117l70 230q6 6 15.5 8t19.5 2q21 0 37.5 -11t16.5 -32q0 -24 -22 -127t-22 -159q0 -22 13 -60t13 -52q0 -17 -15.5 -25t-34.5 -8q-40 0 -58 38q-11 23 -16 74q-24 -44 -50 -69q-36 -35 -75 -35z"/>
<glyph glyph-name="uacute" horiz-adv-x="415" unicode="ú" d="M335 704q29 0 29 -30q0 -12 -67 -79t-82 -67q-27 0 -27 28q0 17 65 82q66 66 82 66zM131 8q-55 0 -81 56q-20 43 -20 105q0 126 26 217q23 81 62 81q19 0 36 -13t17 -32q0 -7 -16 -64t-18 -68q-11 -64 -11 -123q0 -22 2 -33.5t14 -16.5q54 13 97 117l70 230q6 6 15.5 8 t19.5 2q21 0 37.5 -11t16.5 -32q0 -24 -22 -127t-22 -159q0 -22 13 -60t13 -52q0 -17 -15.5 -25t-34.5 -8q-40 0 -58 38q-11 23 -16 74q-24 -44 -50 -69q-36 -35 -75 -35z"/>
<glyph glyph-name="ucircumflex" horiz-adv-x="415" unicode="û" d="M374 538q0 -31 -28 -31q-4 0 -9 1q-19 15 -36 31t-34 35l-4.5 4.5t-7 8t-12.5 15t-21 24.5q-11 -14 -23 -28t-24 -27v1q-57 -64 -73 -64q-30 0 -30 30q0 13 59 78l74 81h33q5 -7 14 -16t15 -16v1l22 -24t23 -24q62 -65 62 -80zM131 8q-55 0 -81 56q-20 43 -20 105 q0 126 26 217q23 81 62 81q19 0 36 -13t17 -32q0 -7 -16 -64t-18 -68q-11 -64 -11 -123q0 -22 2 -33.5t14 -16.5q54 13 97 117l70 230q6 6 15.5 8t19.5 2q21 0 37.5 -11t16.5 -32q0 -24 -22 -127t-22 -159q0 -22 13 -60t13 -52q0 -17 -15.5 -25t-34.5 -8q-40 0 -58 38 q-11 23 -16 74q-24 -44 -50 -69q-36 -35 -75 -35z"/>
<glyph glyph-name="udieresis" horiz-adv-x="415" unicode="ü" d="M295 626q19 0 33 -11.5t14 -30.5q0 -22 -18.5 -35t-39.5 -13q-20 0 -33 9.5t-13 31.5q0 23 17 36t40 13zM147 626q20 0 33.5 -11.5t13.5 -30.5q0 -20 -17.5 -34t-39.5 -14q-20 0 -33.5 9.5t-13.5 31.5q0 23 18 36t39 13zM131 8q-55 0 -81 56q-20 43 -20 105q0 126 26 217 q23 81 62 81q19 0 36 -13t17 -32q0 -7 -16 -64t-18 -68q-11 -64 -11 -123q0 -22 2 -33.5t14 -16.5q54 13 97 117l70 230q6 6 15.5 8t19.5 2q21 0 37.5 -11t16.5 -32q0 -24 -22 -127t-22 -159q0 -22 13 -60t13 -52q0 -17 -15.5 -25t-34.5 -8q-40 0 -58 38q-11 23 -16 74 q-24 -44 -50 -69q-36 -35 -75 -35z"/>
<glyph glyph-name="yacute" horiz-adv-x="411" unicode="ý" d="M29 431q0 25 16 37t39 12q15 0 28.5 -6.5t21.5 -20.5q2 -5 3.5 -15t1.5 -19q0 -37 11.5 -81.5t48.5 -136.5q24 76 50 153q46 117 85 117q19 0 40.5 -15t21.5 -35q-2 0 -48 -111q-54 -132 -89 -240q-48 -151 -48 -229q0 -18 1 -26l-9 -18q-11 -4 -21 -7q-27 0 -49.5 22 t-22.5 53q0 36 14 91q5 19 27 90q-33 72 -73 193q-49 144 -49 192zM282 693q29 0 29 -30q0 -12 -67 -79t-82 -67q-27 0 -27 28q0 17 65 82q66 66 82 66z"/>
<glyph glyph-name="thorn" horiz-adv-x="431" unicode="þ" d="M149 152q0 -29 5 -43q9 -26 32 -26q46 0 74 89q22 69 22 130q0 30 -6 53q-10 38 -32 38q-46 0 -74 -100q-21 -76 -21 -141zM275 484q61 0 92 -67q24 -52 24 -120q0 -103 -38 -190q-50 -113 -140 -113q-21 0 -36 3.5t-30 14.5l-1 -49q0 -25 6 -57q14 -76 14 -82 q0 -15 -14.5 -23.5t-30.5 -8.5q-36 0 -54 32q-22 38 -22 129v29q0 13 1 25q0 74 8 168q19 223 19 277q0 5 2 9q3 48 3 80q0 6 -3 20t-3 22q0 18 23 28.5t43 10.5q25 0 39 -11t14 -36q0 -41 -9 -133q19 19 43 30.5t50 11.5z"/>
<glyph glyph-name="OE" horiz-adv-x="741" unicode="Œ" d="M349 396q0 67 -12 108q-20 68 -72 68q-66 0 -103 -125q-28 -93 -28 -181q0 -62 17 -111q24 -69 74 -69q71 0 103 127q21 83 21 183zM547 343q57 0 80 -6q49 -13 49 -51q0 -17 -10 -32t-26 -21q-36 10 -73 10q-25 0 -55.5 -1.5t-66.5 -5.5l-3 -87q0 -16 6 -31q6 -3 23 -5 t34 -2q20 0 55 2t42 2q49 0 74 -9q41 -15 41 -55q0 -17 -9.5 -31.5t-25.5 -19.5q-28 8 -59.5 11t-64.5 3q-25 0 -98 -7q-42 -4 -58 -4q-6 0 -14.5 2.5t-21.5 9.5q-11 23 -14 48q-26 -35 -59 -53.5t-76 -18.5q-99 0 -147 95q-37 73 -37 184q0 140 48 250q64 146 186 146 q44 0 74 -21t55 -62q7 38 32 57q31 23 105 23q13 0 27 -0.5t28 -0.5q54 0 77 -6q46 -12 46 -51t-36 -51q-19 4 -35.5 7t-34.5 3q-41 0 -68.5 -1.5t-55.5 -7.5q-15 -22 -20.5 -92t-8.5 -125q23 3 57.5 4t37.5 1z"/>
<glyph glyph-name="oe" horiz-adv-x="639" unicode="œ" d="M420 275q19 16 40 45q25 34 25 53q0 16 -14 16q-28 0 -66 -63q-30 -50 -43 -92q29 20 58 41zM219 388q-45 0 -75 -92q-24 -73 -24 -130q0 -41 12 -60.5t33 -19.5q46 0 77 89q25 71 25 129q0 33 -8 53q-12 31 -40 31zM165 -1q-67 0 -105 53q-34 47 -34 115q0 105 49 199 q59 113 154 113q39 0 68.5 -25t43.5 -64q26 36 55 57q37 27 75 27q45 0 71.5 -31.5t26.5 -77.5q0 -80 -73 -147q-64 -59 -150 -79q9 -52 62 -52q70 0 110 63.5t51 63.5q24 0 37 -15t13 -39q0 -62 -74 -113q-68 -47 -133 -47q-42 0 -73 13q-38 16 -55 48q-26 -29 -55 -45.5 t-64 -16.5z"/>
<glyph glyph-name="Scaron" horiz-adv-x="498" unicode="Š" d="M432 860q0 -14 -58 -80q-13 -14 -33.5 -35.5t-41.5 -44.5h-31q-29 29 -54.5 55t-42.5 44q-18 20 -29 35.5t-11 23.5q0 29 30 29h8q17 -15 34.5 -31.5t34.5 -34.5q15 -18 30 -33q3 -5 4.5 -6.5t2.5 -3t2.5 -3l5.5 -5.5q11 14 23 27.5t25 27.5q56 65 73 65q28 0 28 -30z M68 165q31 -30 65 -52.5t82 -22.5q38 0 63 7q42 12 42 39q0 22 -72 54q-100 44 -134 69q-72 53 -72 130q0 78 129 176q124 94 205 94q47 0 68 -43q16 -33 16 -86q0 -55 -12 -89q-18 -51 -63 -51q-16 0 -27.5 9t-15.5 25q13 27 17.5 38.5t4.5 34.5q0 18 -4 32t-18 14 q-42 0 -117.5 -59t-75.5 -100q0 -33 74 -71q136 -69 139 -71q75 -48 75 -106q0 -74 -89 -110q-65 -26 -153 -26q-64 0 -110 19q-65 27 -65 80q0 25 12.5 45.5t35.5 20.5z"/>
<glyph glyph-name="scaron" horiz-adv-x="453" unicode="š" d="M412 675q0 -14 -58 -80q-13 -14 -33.5 -35.5t-41.5 -44.5h-31q-29 29 -54.5 55t-42.5 44q-18 20 -29 35.5t-11 23.5q0 29 30 29h8q17 -15 34.5 -31.5t34.5 -34.5q15 -18 30 -33q3 -5 4.5 -6.5t2.5 -3t2.5 -3l5.5 -5.5q11 14 23 27.5t25 27.5q56 65 73 65q28 0 28 -30z M76 122q23 -18 52 -32t70 -14q30 0 47 5.5t17 15.5q0 8 -111.5 61t-111.5 118q0 74 97 138q90 59 168 59q39 0 57 -26.5t18 -67.5q0 -31 -13 -64q-17 -42 -43 -42q-16 0 -30.5 12.5t-14.5 28.5q0 4 13 33q6 13 6 20q0 16 -18 16q-30 0 -82 -34.5t-52 -62.5q0 -20 108 -69 t108 -108q0 -58 -58 -88q-47 -24 -111 -24q-50 0 -95 16q-62 22 -62 63q0 14 13 30t28 16z"/>
<glyph glyph-name="Ydieresis" horiz-adv-x="463" unicode="Ÿ" d="M329 803q19 0 33 -11.5t14 -30.5q0 -22 -18.5 -35t-39.5 -13q-20 0 -33 9.5t-13 31.5q0 23 17 36t40 13zM181 803q20 0 33.5 -11.5t13.5 -30.5q0 -20 -17.5 -34t-39.5 -14q-20 0 -33.5 9.5t-13.5 31.5q0 23 18 36t39 13zM70 528q-2 4 -24 46q-16 31 -20 47l9 23 q17 24 50 24q52 0 101 -126q6 -17 53 -176q59 149 68 168q59 126 100 126q22 0 44 -14t22 -35q0 -5 -19 -39q-49 -87 -49 -88q-34 -70 -72 -168q-33 -84 -62 -173q-14 -59 -23 -93q-18 -63 -45 -63q-29 0 -50.5 16t-21.5 44q0 24 18 77q12 36 30 76q-19 80 -48 166 q-25 75 -61 162z"/>
<glyph glyph-name="circumflex" horiz-adv-x="355" unicode="ˆ" d="M332 495q0 -45 -40 -45q-7 0 -16 2l-8 8q-14 13 -31 28t-31 29q-8 11 -12 16t-11 13h-1q-2 2 -5 5.5t-5 5.5l-9 -9q-4 -8 -7 -9q-1 -2 -3.5 -4.5t-3.5 -4.5q-4 -6 -10 -12q-29 -32 -49.5 -49t-31.5 -17q-43 0 -43 43q0 19 59 85l76 82h44q6 -6 16 -17t15 -16 q3 -3 5.5 -6.5t5.5 -6.5l34 -34q62 -66 62 -87z"/>
<glyph glyph-name="tilde" horiz-adv-x="470" unicode="˜" d="M298 533q24 0 43 28h-1q8 16 13 32.5t5 33.5q0 38 39 38q38 0 38 -38q0 -29 -7.5 -57t-21.5 -51q-17 -26 -44.5 -44.5t-59.5 -18.5q-55 0 -104 78q-31 52 -33 52q-9 0 -16.5 -4.5t-14.5 -11.5q-4 -9 -15 -37.5t-27 -76.5q-32 0 -44.5 10.5t-12.5 28.5q0 59 27 106 q18 29 43 45t57 16q50 0 101 -78q34 -51 35 -51z"/>
<glyph glyph-name="endash" horiz-adv-x="434" unicode="–" d="M235 315q65 0 99 -8q62 -16 62 -62q0 -18 -5.5 -32.5t-22.5 -14.5q-10 0 -21 5l1 -1q-29 8 -63 11.5t-71 3.5h-33q-6 0 -17 -1t-27 -3q-31 -6 -63 -11q-17 0 -26.5 15t-9.5 33q0 32 32 47h-1q33 18 105 18h61z"/>
<glyph glyph-name="emdash" horiz-adv-x="1086" unicode="—" d="M57 216q-1 2 -2 5.5t-2 5.5l-2 6q-1 3 -2 7t-2 7q0 30 20 47q7 5 31 9t60.5 7t85.5 5.5t106 3.5q10 0 19.5 0.5t18.5 0.5q19 0 39 0.5t39.5 0.5h37h30.5h75h25.5t40.5 1t40 1h23q164 0 235 -20q66 -17 66 -58v-5.5t-2 -8.5q-2 -3 -2 -5t-1 -4q0 -2 -0.5 -4.5t-0.5 -3.5 l-20 -17q-78 17 -156.5 22.5t-169.5 5.5h-218q-167 0 -234 -3q-65 -2 -155 -21z"/>
<glyph glyph-name="quoteleft" horiz-adv-x="241" unicode="‘" d="M155 573q19 0 34.5 -12.5t15.5 -31.5q0 -28 -22.5 -45.5t-52.5 -17.5q-27 0 -44 18t-17 46q0 39 28 84q32 51 68 51q19 0 19 -16q-17 -17 -31.5 -37.5t-17.5 -42.5q12 4 20 4z"/>
<glyph glyph-name="quotesinglbase" horiz-adv-x="241" unicode="‚" d="M96 -4q-22 0 -40 14.5t-18 36.5q0 34 26 54.5t61 20.5q34 0 53 -21t19 -55q0 -45 -33 -99q-37 -60 -79 -60q-23 0 -23 19q19 18 36.5 40.5t22.5 53.5q-16 -4 -25 -4z"/>
<glyph glyph-name="quotedblleft" horiz-adv-x="396" unicode="“" d="M155 573q19 0 34.5 -12.5t15.5 -31.5q0 -28 -22.5 -45.5t-52.5 -17.5q-27 0 -44 18t-17 46q0 39 28 84q32 51 68 51q19 0 19 -16q-17 -17 -31.5 -37.5t-17.5 -42.5q12 4 20 4zM311 573q18 0 33.5 -12.5t15.5 -31.5q0 -28 -22.5 -45.5t-52.5 -17.5q-28 0 -44 18t-16 46 q0 40 27 84q31 51 68 51q19 0 19 -16q0 -2 -22 -24t-27 -56q4 1 8.5 2.5t12.5 1.5z"/>
<glyph glyph-name="quotedblright" horiz-adv-x="396" unicode="”" d="M277 558q-18 0 -33.5 12.5t-15.5 31.5q0 29 22.5 46.5t52.5 17.5q28 0 44 -18t16 -47q0 -40 -27 -84q-31 -51 -68 -51q-19 0 -19 16q16 16 30.5 35t18.5 45q-12 -4 -21 -4zM123 558q-19 0 -34.5 12.5t-15.5 31.5q0 29 22.5 46.5t51.5 17.5t45 -18t16 -47q0 -38 -28 -84 q-31 -51 -67 -51q-19 0 -19 16q17 16 31.5 36t17.5 44z"/>
<glyph glyph-name="dagger" horiz-adv-x="385" unicode="†" d="M142 199v53v69t1 69h-4h-8q-3 0 -5 -0.5t-5 -0.5q-13 -2 -29.5 -3.5t-30.5 -2.5q-28 0 -41.5 15t-13.5 35q0 34 45 49q31 11 95 11q6 147 27 164q12 11 26 11q5 0 17 -3t24 -23q4 -8 4 -35q0 -18 -2 -44q-2 -16 -2 -30t-1 -29q0 -2 -0.5 -4.5t-0.5 -6.5q23 -1 39 -2 t29 -3q35 -6 55 -20.5t20 -37.5q0 -20 -9.5 -34.5t-36.5 -14.5h-10t-9 1h-2q-1 0 -1 1q-19 3 -38.5 5t-42.5 3v-51v-38.5t1 -41.5v-18q0 -3 0.5 -5.5t0.5 -5.5q0 -6 0.5 -13.5t0.5 -15.5v-31t2 -33q0 -9 0.5 -17t0.5 -16v-16.5t1 -15.5q1 -17 1.5 -34t1.5 -25l-15 -20 q-20 -17 -37 -17q-11 0 -20 7.5t-15 25.5z"/>
<glyph glyph-name="daggerdbl" horiz-adv-x="422" unicode="‡" d="M164 177q-13 0 -16.5 -0.5t-6.5 -0.5q-7 -2 -14.5 -2.5t-15.5 -1.5t-15.5 -1.5t-13.5 -1.5q-28 0 -42 15.5t-14 35.5q0 37 45 49q33 11 91 11v55.5t1 54.5q-12 0 -15.5 -0.5t-6.5 -0.5q-13 -2 -29.5 -3.5t-30.5 -2.5q-28 0 -41.5 15t-13.5 35q0 34 45 49q31 11 95 11 q6 152 28 165q11 10 25 10q5 0 17 -3t24 -23q4 -8 4 -35q0 -18 -2 -44q-2 -16 -2 -30t-1 -29q0 -2 -0.5 -4.5t-0.5 -6.5q22 -1 38.5 -2t29.5 -3q35 -6 55 -20.5t20 -37.5q0 -20 -9.5 -34.5t-36.5 -14.5h-11.5t-10.5 2q-19 3 -38.5 5t-42.5 3v-111q24 -1 43 -2t31 -3 q75 -14 75 -58q0 -19 -9.5 -34.5t-36.5 -15.5h-11t-10 2q-37 7 -79 8q0 -11 0.5 -20t1.5 -20q0 -9 0.5 -16.5t0.5 -15.5v-16.5t1 -15.5q1 -17 1.5 -34t1.5 -25q-2 -5 -4 -10.5t-4 -10.5q-10 -8 -23 -12t-21 -4q-11 0 -20 7.5t-15 25.5z"/>
<glyph glyph-name="ellipsis" horiz-adv-x="1000" unicode="…" d="M845 123q26 0 46 -14t20 -39q0 -31 -29 -50.5t-61 -19.5q-27 0 -46 14t-19 41q0 31 28 49.5t61 18.5zM512 123q26 0 45.5 -14t19.5 -39q0 -30 -28.5 -50t-60.5 -20q-28 0 -46.5 14t-18.5 41q0 31 28 49.5t61 18.5zM179 123q26 0 45.5 -14t19.5 -39q0 -30 -28.5 -50 t-60.5 -20q-28 0 -47 14t-19 41q0 31 28 49.5t62 18.5z"/>
<glyph glyph-name="perthousand" horiz-adv-x="811" unicode="‰" d="M285 524q-13 -5 -45 -8q-8 -27 -18 -48t-21 -37q-36 -45 -86 -45q-22 0 -39 9.5t-29 25.5t-18 37.5t-6 44.5q0 27 7.5 59.5t21.5 64.5q17 38 40 61t47 23q65 0 89 -33q10 -13 14.5 -37t5.5 -56q25 5 45.5 17t34.5 34v-1q5 9 10 27.5t10 47.5q18 27 51 27q20 0 34.5 -11 t14.5 -31q0 -7 -58 -139q-35 -78 -62 -147t-47 -129q-61 -173 -61 -260q0 -20 6 -33q7 -14 10.5 -22t3.5 -11l-12 -20q-5 -2 -13.5 -6t-12.5 -4q-14 0 -24.5 7.5t-18 19t-11.5 26t-4 28.5q0 35 6 80.5t18 94.5q11 44 26.5 92.5t32.5 97.5q14 38 26.5 73t31.5 81zM657 -10 q-51 0 -77 47v-1q-12 20 -17.5 42.5t-5.5 48.5q0 52 23 116q28 81 75 81q8 0 17 -3q11 -4 17 -5t9 -1q45 0 70 -46q8 -17 13.5 -39t5.5 -45q0 -65 -31 -123q-38 -72 -99 -72zM391 -10q-49 0 -76 47v-1q-22 38 -22 91q0 26 5.5 55t16.5 61q30 81 75 81q9 0 18 -3q11 -4 17 -5 t9 -1q21 0 39.5 -12t30.5 -34q8 -17 13 -38.5t5 -45.5q0 -66 -30 -123q-40 -72 -101 -72zM681 250q-13 0 -23 -13.5t-18 -36.5q-12 -39 -12 -78q0 -27 4 -39q6 -22 24 -22q11 0 22 12.5t21 33.5q17 42 17 73q0 27 -7 45q-10 25 -28 25zM416 250q-12 0 -22.5 -13.5 t-18.5 -36.5q-11 -41 -11 -78q0 -24 4.5 -42.5t21.5 -18.5q25 0 45 46q15 40 15 73q0 25 -6 45q-10 25 -28 25zM165 512q-27 8 -41 20.5t-21 39.5q-14 -34 -14 -72q0 -17 6 -30.5t20 -13.5q17 0 32 20q5 8 9.5 17t8.5 19zM180 599q0 23 -6 37.5t-17 14.5q-9 0 -13.5 -12 t-4.5 -20q0 -15 8.5 -25.5t31.5 -14.5z"/>
<glyph glyph-name="guilsinglleft" horiz-adv-x="245" unicode="‹" d="M203 126q0 -25 -14 -41.5t-39 -16.5q-13 0 -24 6t-11 19l1 5l2 12l2 10q0 27 -26 61q-2 1 -4 5q-14 15 -30.5 31.5t-30.5 33.5q0 12 12 25.5t33 30.5q38 30 38 62q-1 1 -1 3q-1 2 -1 3.5t-1 3.5q-2 6 -3 12.5t-1 10.5q0 14 11.5 20t25.5 6q25 0 40.5 -19.5t15.5 -45.5 q0 -31 -18 -60t-44 -51q27 -27 42 -51h-1q26 -40 26 -75z"/>
<glyph glyph-name="guilsinglright" horiz-adv-x="245" unicode="›" d="M40 363q0 26 14.5 45.5t40.5 19.5q17 0 28 -8.5t11 -17.5t-4 -17q-4 -10 -4 -15q0 -37 37 -62q47 -35 47 -57q-22 -21 -38 -38.5t-26 -30.5q-13 -14 -20 -30t-8 -31q1 -3 1.5 -7t1.5 -7q1 -2 1.5 -6.5t0.5 -6.5q0 -13 -12.5 -19.5t-23.5 -6.5q-23 0 -37.5 17.5 t-14.5 40.5q0 38 26 76q8 11 18.5 24.5t21.5 24.5q-27 22 -44 49.5t-17 62.5z"/>
<glyph glyph-name="Euro" horiz-adv-x="529" unicode="€" d="M492 214q0 -84 -55 -150q-59 -70 -141 -70q-90 0 -140 69q-44 61 -45 124q-29 -3 -52 -5q-12 0 -19 7t-7 43q0 18 27 28q16 6 54 8q5 33 15 76h-14q-32 -3 -56 -7q-12 0 -19 8t-7 17q0 45 27 54q22 9 82 10q31 79 75 152q56 95 117 95q55 0 95 -61q35 -54 35 -112 q0 -30 -13 -52t-42 -22q-24 0 -32 9t-8 25q0 5 1 15t1 15q0 20 -8 38t-24 25q-50 -18 -89 -127q44 -1 67 -4q57 -9 57 -62q0 -10 -4 -17.5t-15 -7.5q-8 0 -17 2q-29 6 -66 7q-19 0 -39 1q-10 -42 -14 -75q44 0 74 -5q46 -9 46 -51q0 -10 -4 -17t-15 -18q-8 0 -10 3 q-25 4 -50 6q-18 1 -43 2q1 -20 13 -51q19 -49 63 -49q65 0 91 90t62 90q21 0 33.5 -17t12.5 -39z"/>
<glyph glyph-name="trademark" horiz-adv-x="765" unicode="™" d="M637 662q17 0 27.5 -8.5t18.5 -24.5q-13 -60 -17.5 -123t-4.5 -135q0 -12 3 -41q3 -15 3 -25q0 -13 -13.5 -21.5t-27.5 -8.5q-26 0 -37 23q-6 12 -6 41v13.5t1 13.5q0 17 1 46.5t3 55.5q1 11 1 20.5v17.5q-5 -8 -10.5 -15.5t-10.5 -15.5q-8 -11 -16 -25t-15 -27l-6 -21 q-3 -10 -8 -19q-10 0 -15 -4h-5q-39 0 -72 87q-2 2 -3 6t-3 9q-2 -21 -2 -42v-42q0 -5 0.5 -12t1.5 -17v-4q4 -22 5.5 -38.5t1.5 -21.5q0 -14 -13.5 -22t-26.5 -8q-29 0 -40 38q-6 22 -6 67v21.5t1 19.5v33q0 57 2.5 97.5t14.5 69.5q16 43 45 43q28 0 52 -33h-2 q8 -18 12.5 -36t12.5 -38q2 -8 5.5 -16t6.5 -15q1 -3 0.5 -5.5t4.5 -9.5q12 20 22.5 34.5t18.5 25.5q7 10 13 18q27 35 48.5 54.5t33.5 19.5zM232 384q0 -44 9 -84q-5 -14 -18.5 -20t-27.5 -6t-23.5 8t-14.5 22q-6 15 -6 47t1.5 58.5t3.5 52.5q0 14 0.5 29t2.5 29 q2 19 2.5 34.5t0.5 26.5q-7 0 -11 -1q-17 -2 -27.5 -3t-12.5 -1l-18 2q-13 11 -17.5 19.5t-4.5 22.5q0 21 9.5 28.5t26.5 7.5h14q16 0 40 0.5t67 3.5q20 2 36.5 3t27.5 1q22 0 35 -5q20 -8 20 -36q0 -18 -7.5 -25.5t-26.5 -7.5h-29t-18 -0.5t-11.5 -1.5t-8.5 -2 q-7 -54 -10.5 -104t-3.5 -98z"/>
</font>
</defs>
</svg>
